<svg viewBox="0 0 330 200" xmlns="http://www.w3.org/2000/svg"><g><g><g><g><g><line x1="40" y1="177" x2="35" y2="177" style="visibility: inherit;" fill="rgb(0, 0, 0)" stroke="rgb(204, 204, 204)" stroke-width="1px"></line><line x1="40" y1="159.3" x2="35" y2="159.3" style="visibility: inherit;" fill="rgb(0, 0, 0)" stroke="rgb(204, 204, 204)" stroke-width="1px"></line><line x1="40" y1="141.6" x2="35" y2="141.6" style="visibility: inherit;" fill="rgb(0, 0, 0)" stroke="rgb(204, 204, 204)" stroke-width="1px"></line><line x1="40" y1="123.89999999999999" x2="35" y2="123.89999999999999" style="visibility: inherit;" fill="rgb(0, 0, 0)" stroke="rgb(204, 204, 204)" stroke-width="1px"></line><line x1="40" y1="106.2" x2="35" y2="106.2" style="visibility: inherit;" fill="rgb(0, 0, 0)" stroke="rgb(204, 204, 204)" stroke-width="1px"></line><line x1="40" y1="88.5" x2="35" y2="88.5" style="visibility: inherit;" fill="rgb(0, 0, 0)" stroke="rgb(204, 204, 204)" stroke-width="1px"></line><line x1="40" y1="70.8" x2="35" y2="70.8" style="visibility: inherit;" fill="rgb(0, 0, 0)" stroke="rgb(204, 204, 204)" stroke-width="1px"></line><line x1="40" y1="53.10000000000001" x2="35" y2="53.10000000000001" style="visibility: inherit;" fill="rgb(0, 0, 0)" stroke="rgb(204, 204, 204)" stroke-width="1px"></line><line x1="40" y1="35.39999999999999" x2="35" y2="35.39999999999999" style="visibility: inherit;" fill="rgb(0, 0, 0)" stroke="rgb(204, 204, 204)" stroke-width="1px"></line><line x1="40" y1="17.699999999999996" x2="35" y2="17.699999999999996" style="visibility: inherit;" fill="rgb(0, 0, 0)" stroke="rgb(204, 204, 204)" stroke-width="1px"></line><line x1="40" y1="0" x2="35" y2="0" style="visibility: inherit;" fill="rgb(0, 0, 0)" stroke="rgb(204, 204, 204)" stroke-width="1px"></line></g><g transform="translate(30, 0)"><text x="0" y="177" dx="0em" dy="0.3em" style="text-anchor: end; visibility: hidden; font-family: Roboto, sans-serif; font-size: 12px; font-weight: 200;" fill="rgb(255, 255, 255)" stroke="none" stroke-width="1px">0</text><text x="0" y="159.3" dx="0em" dy="0.3em" style="text-anchor: end; visibility: inherit; font-family: Roboto, sans-serif; font-size: 12px; font-weight: 200;" fill="rgb(255, 255, 255)" stroke="none" stroke-width="1px">20</text><text x="0" y="141.6" dx="0em" dy="0.3em" style="text-anchor: end; visibility: hidden; font-family: Roboto, sans-serif; font-size: 12px; font-weight: 200;" fill="rgb(255, 255, 255)" stroke="none" stroke-width="1px">40</text><text x="0" y="123.89999999999999" dx="0em" dy="0.3em" style="text-anchor: end; visibility: inherit; font-family: Roboto, sans-serif; font-size: 12px; font-weight: 200;" fill="rgb(255, 255, 255)" stroke="none" stroke-width="1px">60</text><text x="0" y="106.2" dx="0em" dy="0.3em" style="text-anchor: end; visibility: hidden; font-family: Roboto, sans-serif; font-size: 12px; font-weight: 200;" fill="rgb(255, 255, 255)" stroke="none" stroke-width="1px">80</text><text x="0" y="88.5" dx="0em" dy="0.3em" style="text-anchor: end; visibility: inherit; font-family: Roboto, sans-serif; font-size: 12px; font-weight: 200;" fill="rgb(255, 255, 255)" stroke="none" stroke-width="1px">100</text><text x="0" y="70.8" dx="0em" dy="0.3em" style="text-anchor: end; visibility: hidden; font-family: Roboto, sans-serif; font-size: 12px; font-weight: 200;" fill="rgb(255, 255, 255)" stroke="none" stroke-width="1px">120</text><text x="0" y="53.10000000000001" dx="0em" dy="0.3em" style="text-anchor: end; visibility: inherit; font-family: Roboto, sans-serif; font-size: 12px; font-weight: 200;" fill="rgb(255, 255, 255)" stroke="none" stroke-width="1px">140</text><text x="0" y="35.39999999999999" dx="0em" dy="0.3em" style="text-anchor: end; visibility: hidden; font-family: Roboto, sans-serif; font-size: 12px; font-weight: 200;" fill="rgb(255, 255, 255)" stroke="none" stroke-width="1px">160</text><text x="0" y="17.699999999999996" dx="0em" dy="0.3em" style="text-anchor: end; visibility: inherit; font-family: Roboto, sans-serif; font-size: 12px; font-weight: 200;" fill="rgb(255, 255, 255)" stroke="none" stroke-width="1px">180</text><text x="0" y="0" dx="0em" dy="0.3em" style="text-anchor: end; visibility: hidden; font-family: Roboto, sans-serif; font-size: 12px; font-weight: 200;" fill="rgb(255, 255, 255)" stroke="none" stroke-width="1px">200</text></g><line x1="40" y1="0" x2="40" y2="177" fill="rgb(0, 0, 0)" stroke="rgb(204, 204, 204)" stroke-width="1px"></line></g></g><g transform="translate(40, 0)" clip-path="url(#clip_0)"><clipPath id="clip_0"><rect width="290" height="177"></rect></clipPath><g><g><g><line x1="0" y1="0" x2="0" y2="177" fill="rgb(0, 0, 0)" stroke="rgb(189, 189, 189)" stroke-width="1px" opacity="0.25"></line><line x1="26.363636363636363" y1="0" x2="26.363636363636363" y2="177" fill="rgb(0, 0, 0)" stroke="rgb(189, 189, 189)" stroke-width="1px" opacity="0.25"></line><line x1="52.72727272727273" y1="0" x2="52.72727272727273" y2="177" fill="rgb(0, 0, 0)" stroke="rgb(189, 189, 189)" stroke-width="1px" opacity="0.25"></line><line x1="79.09090909090908" y1="0" x2="79.09090909090908" y2="177" fill="rgb(0, 0, 0)" stroke="rgb(189, 189, 189)" stroke-width="1px" opacity="0.25"></line><line x1="105.45454545454545" y1="0" x2="105.45454545454545" y2="177" fill="rgb(0, 0, 0)" stroke="rgb(189, 189, 189)" stroke-width="1px" opacity="0.25"></line><line x1="131.8181818181818" y1="0" x2="131.8181818181818" y2="177" fill="rgb(0, 0, 0)" stroke="rgb(189, 189, 189)" stroke-width="1px" opacity="0.25"></line><line x1="158.18181818181816" y1="0" x2="158.18181818181816" y2="177" fill="rgb(0, 0, 0)" stroke="rgb(189, 189, 189)" stroke-width="1px" opacity="0.25"></line><line x1="184.54545454545453" y1="0" x2="184.54545454545453" y2="177" fill="rgb(0, 0, 0)" stroke="rgb(189, 189, 189)" stroke-width="1px" opacity="0.25"></line><line x1="210.9090909090909" y1="0" x2="210.9090909090909" y2="177" fill="rgb(0, 0, 0)" stroke="rgb(189, 189, 189)" stroke-width="1px" opacity="0.25"></line><line x1="237.27272727272728" y1="0" x2="237.27272727272728" y2="177" fill="rgb(0, 0, 0)" stroke="rgb(189, 189, 189)" stroke-width="1px" opacity="0.25"></line><line x1="263.6363636363636" y1="0" x2="263.6363636363636" y2="177" fill="rgb(0, 0, 0)" stroke="rgb(189, 189, 189)" stroke-width="1px" opacity="0.25"></line><line x1="290" y1="0" x2="290" y2="177" fill="rgb(0, 0, 0)" stroke="rgb(189, 189, 189)" stroke-width="1px" opacity="0.25"></line></g><g><line x1="0" y1="177" x2="290" y2="177" fill="rgb(0, 0, 0)" stroke="rgb(189, 189, 189)" stroke-width="1px" opacity="0.25"></line><line x1="0" y1="159.3" x2="290" y2="159.3" fill="rgb(0, 0, 0)" stroke="rgb(189, 189, 189)" stroke-width="1px" opacity="0.25"></line><line x1="0" y1="141.6" x2="290" y2="141.6" fill="rgb(0, 0, 0)" stroke="rgb(189, 189, 189)" stroke-width="1px" opacity="0.25"></line><line x1="0" y1="123.89999999999999" x2="290" y2="123.89999999999999" fill="rgb(0, 0, 0)" stroke="rgb(189, 189, 189)" stroke-width="1px" opacity="0.25"></line><line x1="0" y1="106.2" x2="290" y2="106.2" fill="rgb(0, 0, 0)" stroke="rgb(189, 189, 189)" stroke-width="1px" opacity="0.25"></line><line x1="0" y1="88.5" x2="290" y2="88.5" fill="rgb(0, 0, 0)" stroke="rgb(189, 189, 189)" stroke-width="1px" opacity="0.25"></line><line x1="0" y1="70.8" x2="290" y2="70.8" fill="rgb(0, 0, 0)" stroke="rgb(189, 189, 189)" stroke-width="1px" opacity="0.25"></line><line x1="0" y1="53.10000000000001" x2="290" y2="53.10000000000001" fill="rgb(0, 0, 0)" stroke="rgb(189, 189, 189)" stroke-width="1px" opacity="0.25"></line><line x1="0" y1="35.39999999999999" x2="290" y2="35.39999999999999" fill="rgb(0, 0, 0)" stroke="rgb(189, 189, 189)" stroke-width="1px" opacity="0.25"></line><line x1="0" y1="17.699999999999996" x2="290" y2="17.699999999999996" fill="rgb(0, 0, 0)" stroke="rgb(189, 189, 189)" stroke-width="1px" opacity="0.25"></line><line x1="0" y1="0" x2="290" y2="0" fill="rgb(0, 0, 0)" stroke="rgb(189, 189, 189)" stroke-width="1px" opacity="0.25"></line></g></g></g><g><g><line x1="0" y1="177" x2="290" y2="177" fill="rgb(0, 0, 0)" stroke="rgb(153, 153, 153)" stroke-width="1.5px"></line></g></g><g><g><line x1="26.363636363636363" y1="0" x2="26.363636363636363" y2="177" fill="rgb(0, 0, 0)" stroke="rgb(153, 153, 153)" stroke-width="1.5px"></line></g></g><g><g><g><g><g><path stroke="rgb(255, 112, 67)" stroke-width="2px" d="M26.627272727272725,177L27.022727272727273,177L27.418181818181818,177L27.813636363636363,176.115L28.20909090909091,176.115L28.604545454545452,176.115L29,175.23L29.395454545454545,175.23L29.79090909090909,175.23L30.186363636363637,174.345L30.581818181818182,174.345L30.977272727272727,174.345L31.372727272727275,173.46L31.768181818181816,173.46L32.163636363636364,173.46L32.55909090909091,172.575L32.95454545454545,172.575L33.35,172.575L33.74545454545454,171.69L34.14090909090909,171.69L34.53636363636364,171.69L34.93181818181818,170.805L35.32727272727273,170.805L35.722727272727276,170.805L36.11818181818182,169.92L36.513636363636365,169.92L36.90909090909091,169.92L37.304545454545455,169.035L37.7,169.035L38.09545454545455,169.035L38.49090909090909,168.15L38.88636363636364,168.15L39.28181818181819,168.15L39.67727272727272,167.265L40.07272727272727,167.265L40.46818181818182,167.265L40.86363636363636,166.38L41.25909090909091,166.38L41.654545454545456,166.38L42.05,165.495L42.445454545454545,165.495L42.84090909090909,165.495L43.236363636363635,164.60999999999999L43.63181818181818,164.60999999999999L44.02727272727273,164.60999999999999L44.42272727272727,163.725L44.81818181818182,163.725L45.21363636363637,163.725L45.60909090909092,162.84L46.00454545454545,162.84L46.4,162.84L46.79545454545455,161.955L47.19090909090909,161.955L47.586363636363636,161.955L47.981818181818184,161.07L48.377272727272725,161.07L48.77272727272727,161.07L49.16818181818182,160.185L49.56363636363636,160.185L49.95909090909091,160.185L50.35454545454546,159.3L50.75,159.3L51.14545454545455,159.3L51.540909090909096,158.415L51.93636363636363,158.415L52.33181818181818,158.415L52.72727272727273,157.53L53.122727272727275,157.53L53.518181818181816,157.53L53.913636363636364,156.645L54.30909090909091,156.645L54.70454545454545,156.645L55.1,155.76L55.49545454545455,155.76L55.89090909090909,155.76L56.28636363636364,154.875L56.68181818181819,154.875L57.07727272727273,154.875L57.47272727272727,153.99L57.86818181818182,153.99L58.26363636363636,153.99L58.65909090909091,153.105L59.054545454545455,153.105L59.449999999999996,153.105L59.845454545454544,152.22L60.24090909090909,152.22L60.63636363636363,152.22L61.03181818181818,151.335L61.42727272727273,151.335L61.82272727272728,151.335L62.21818181818182,150.45L62.61363636363637,150.45L63.009090909090915,150.45L63.40454545454545,149.565L63.8,149.565L64.19545454545455,149.565L64.5909090909091,148.68L64.98636363636363,148.68L65.38181818181819,148.68L65.77727272727273,147.795L66.17272727272727,147.795L66.56818181818183,147.795L66.96363636363635,146.91L67.35909090909091,146.91L67.75454545454545,146.91L68.14999999999999,146.025L68.54545454545455,146.025L68.94090909090909,146.025L69.33636363636364,145.14000000000001L69.73181818181818,145.14000000000001L70.12727272727273,145.14000000000001L70.52272727272728,144.255L70.91818181818182,144.255L71.31363636363636,144.255L71.70909090909092,143.37L72.10454545454546,143.37L72.5,143.37L72.89545454545454,142.48499999999999L73.2909090909091,142.48499999999999L73.68636363636364,142.48499999999999L74.08181818181818,141.6L74.47727272727273,141.6L74.87272727272727,141.6L75.26818181818182,140.715L75.66363636363637,140.715L76.05909090909091,140.715L76.45454545454545,139.83L76.85000000000001,139.83L77.24545454545455,139.83L77.64090909090909,138.945L78.03636363636365,138.945L78.43181818181817,138.945L78.82727272727271,138.06L79.22272727272727,138.06L79.61818181818181,138.06L80.01363636363635,137.175L80.4090909090909,137.175L80.80454545454545,137.175L81.2,136.29L81.59545454545454,136.29L81.99090909090908,136.29L82.38636363636364,135.405L82.78181818181818,135.405L83.17727272727272,135.405L83.57272727272728,134.52L83.96818181818182,134.52L84.36363636363636,134.52L84.75909090909092,133.635L85.15454545454546,133.635L85.55,133.635L85.94545454545455,132.75L86.3409090909091,132.75L86.73636363636363,132.75L87.13181818181819,131.865L87.52727272727273,131.865L87.92272727272727,131.865L88.31818181818183,130.98L88.71363636363637,130.98L89.10909090909091,130.98L89.50454545454546,130.095L89.9,130.095L90.29545454545453,130.095L90.6909090909091,129.21L91.08636363636363,129.21L91.48181818181817,129.21L91.87727272727273,128.325L92.27272727272727,128.325L92.66818181818181,128.325L93.06363636363636,127.44L93.4590909090909,127.44L93.85454545454544,127.44L94.25,126.55500000000002L94.64545454545454,126.55500000000002L95.04090909090908,126.55500000000002L95.43636363636364,125.66999999999999L95.83181818181818,125.66999999999999L96.22727272727273,125.66999999999999L96.62272727272727,124.78500000000001L97.01818181818182,124.78500000000001L97.41363636363637,124.78500000000001L97.80909090909091,123.89999999999999L98.20454545454545,123.89999999999999L98.60000000000001,123.89999999999999L98.99545454545455,123.01500000000001L99.39090909090909,123.01500000000001L99.78636363636365,123.01500000000001L100.18181818181819,122.13L100.57727272727273,122.13L100.97272727272728,122.13L101.36818181818182,121.245L101.76363636363637,121.245L102.15909090909092,121.245L102.55454545454546,120.35999999999999L102.94999999999999,120.35999999999999L103.34545454545454,120.35999999999999L103.74090909090908,119.47500000000001L104.13636363636363,119.47500000000001L104.53181818181818,119.47500000000001L104.92727272727272,118.58999999999999L105.32272727272726,118.58999999999999L105.71818181818182,118.58999999999999L106.11363636363636,117.70500000000001L106.5090909090909,117.70500000000001L106.90454545454546,117.70500000000001L107.3,116.81999999999998L107.69545454545454,116.81999999999998L108.0909090909091,116.81999999999998L108.48636363636363,115.935L108.88181818181818,115.935L109.27727272727273,115.935L109.67272727272727,115.05L110.06818181818181,115.05L110.46363636363637,115.05L110.85909090909091,114.165L111.25454545454545,114.165L111.65,114.165L112.04545454545455,113.28L112.4409090909091,113.28L112.83636363636364,113.28L113.23181818181818,112.395L113.62727272727274,112.395L114.02272727272728,112.395L114.41818181818181,111.51L114.81363636363638,111.51L115.2090909090909,111.51L115.60454545454544,110.625L116,110.625L116.39545454545454,110.625L116.79090909090908,109.74L117.18636363636364,109.74L117.58181818181818,109.74L117.97727272727272,108.855L118.37272727272727,108.855L118.76818181818182,108.855L119.16363636363636,107.97L119.55909090909091,107.97L119.95454545454545,107.97L120.35,107.085L120.74545454545455,107.085L121.14090909090909,107.085L121.53636363636363,106.2L121.93181818181819,106.2L122.32727272727273,106.2L122.72272727272727,105.315L123.11818181818182,105.315L123.51363636363637,105.315L123.9090909090909,104.43000000000002L124.30454545454546,104.43000000000002L124.7,104.43000000000002L125.09545454545454,103.54499999999999L125.4909090909091,103.54499999999999L125.88636363636364,103.54499999999999L126.28181818181817,102.66000000000001L126.67727272727274,102.66000000000001L127.07272727272726,102.66000000000001L127.46818181818183,101.77499999999999L127.86363636363636,101.77499999999999L128.2590909090909,101.77499999999999L128.65454545454546,100.89000000000001L129.05,100.89000000000001L129.44545454545454,100.89000000000001L129.8409090909091,100.005L130.23636363636365,100.005L130.63181818181818,100.005L131.02727272727273,99.12L131.4227272727273,99.12L131.8181818181818,99.12L132.21363636363637,98.23499999999999L132.60909090909092,98.23499999999999L133.00454545454545,98.23499999999999L133.4,97.35000000000001L133.79545454545453,97.35000000000001L134.1909090909091,97.35000000000001L134.58636363636364,96.46499999999999L134.98181818181817,96.46499999999999L135.37727272727273,96.46499999999999L135.77272727272728,95.58000000000001L136.1681818181818,95.58000000000001L136.56363636363636,95.58000000000001L136.95909090909092,94.69499999999998L137.35454545454544,94.69499999999998L137.75,94.69499999999998L138.14545454545456,93.81L138.54090909090908,93.81L138.93636363636364,93.81L139.3318181818182,92.925L139.72727272727272,92.925L140.12272727272727,92.925L140.51818181818183,92.04L140.91363636363636,92.04L141.3090909090909,92.04L141.70454545454547,91.155L142.1,91.155L142.49545454545455,91.155L142.8909090909091,90.27L143.28636363636363,90.27L143.6818181818182,90.27L144.07727272727274,89.385L144.47272727272727,89.385L144.86818181818182,89.385L145,88.5L145.26363636363635,88.5L145.65909090909093,88.5L146.05454545454546,88.5L146.45,87.615L146.84545454545454,87.615L147.24090909090907,87.615L147.63636363636363,86.73L148.03181818181818,86.73L148.42727272727274,86.73L148.82272727272726,85.845L149.21818181818182,85.845L149.61363636363635,85.845L150.0090909090909,84.96L150.40454545454546,84.96L150.8,84.96L151.19545454545454,84.075L151.5909090909091,84.075L151.98636363636362,84.075L152.3818181818182,83.19L152.77727272727273,83.19L153.1727272727273,83.19L153.5681818181818,82.30499999999999L153.96363636363637,82.30499999999999L154.3590909090909,82.30499999999999L154.75454545454548,81.41999999999999L155.15,81.41999999999999L155.54545454545456,81.41999999999999L155.9409090909091,80.535L156.33636363636361,80.535L156.73181818181817,80.535L157.12727272727275,79.64999999999999L157.52272727272728,79.64999999999999L157.9181818181818,79.64999999999999L158.31363636363636,78.76499999999999L158.7090909090909,78.76499999999999L159.10454545454544,78.76499999999999L159.5,77.88L159.89545454545456,77.88L160.29090909090908,77.88L160.68636363636364,76.995L161.08181818181816,76.995L161.47727272727272,76.995L161.87272727272727,76.11000000000001L162.26818181818183,76.11000000000001L162.66363636363636,76.11000000000001L163.0590909090909,75.22500000000001L163.45454545454544,75.22500000000001L163.85,75.22500000000001L164.24545454545455,74.34L164.6409090909091,74.34L165.03636363636363,74.34L165.4318181818182,73.45500000000001L165.8272727272727,73.45500000000001L166.2227272727273,73.45500000000001L166.61818181818182,72.57000000000001L167.01363636363638,72.57000000000001L167.4090909090909,72.57000000000001L167.80454545454546,71.685L168.2,71.685L168.59545454545457,71.685L168.9909090909091,70.8L169.38636363636365,70.8L169.78181818181818,70.8L170.1772727272727,69.915L170.57272727272726,69.915L170.96818181818182,69.915L171.36363636363637,69.03L171.7590909090909,69.03L172.15454545454546,69.03L172.54999999999998,68.145L172.94545454545454,68.145L173.3409090909091,68.145L173.73636363636365,67.26L174.13181818181818,67.26L174.52727272727273,67.26L174.92272727272726,66.375L175.3181818181818,66.375L175.71363636363637,66.375L176.10909090909092,65.49L176.50454545454545,65.49L176.9,65.49L177.29545454545453,64.605L177.6909090909091,64.605L178.08636363636364,64.605L178.4818181818182,63.72L178.87727272727273,63.72L179.27272727272728,63.72L179.6681818181818,62.834999999999994L180.06363636363633,62.834999999999994L180.45909090909092,62.834999999999994L180.85454545454547,61.949999999999996L181.25,61.949999999999996L181.64545454545453,61.949999999999996L182.04090909090908,61.065L182.43636363636367,61.065L182.8318181818182,61.065L183.22727272727272,60.17999999999999L183.62272727272727,60.17999999999999L184.0181818181818,60.17999999999999L184.41363636363636,59.294999999999995L184.8090909090909,59.294999999999995L185.20454545454547,59.294999999999995L185.6,58.40999999999999L185.99545454545455,58.40999999999999L186.39090909090908,58.40999999999999L186.78636363636363,57.52499999999999L187.1818181818182,57.52499999999999L187.57727272727274,57.52499999999999L187.97272727272727,56.63999999999999L188.36818181818182,56.63999999999999L188.76363636363635,56.63999999999999L189.1590909090909,55.75499999999999L189.55454545454546,55.75499999999999L189.95000000000002,55.75499999999999L190.34545454545454,54.87000000000001L190.7409090909091,54.87000000000001L191.13636363636363,54.87000000000001L191.53181818181818,53.98500000000001L191.92727272727274,53.98500000000001L192.3227272727273,53.98500000000001L192.71818181818182,53.10000000000001L193.11363636363635,53.10000000000001L193.5090909090909,53.10000000000001L193.90454545454543,52.21500000000001L194.3,52.21500000000001L194.69545454545454,52.21500000000001L195.0909090909091,51.330000000000005L195.48636363636362,51.330000000000005L195.88181818181818,51.330000000000005L196.2772727272727,50.44500000000001L196.6727272727273,50.44500000000001L197.0681818181818,50.44500000000001L197.46363636363637,49.56L197.8590909090909,49.56L198.25454545454545,49.56L198.65,48.675000000000004L199.04545454545456,48.675000000000004L199.4409090909091,48.675000000000004L199.83636363636364,47.790000000000006L200.23181818181817,47.790000000000006L200.62727272727273,47.790000000000006L201.02272727272728,46.905L201.41818181818184,46.905L201.81363636363636,46.905L202.20909090909092,46.02L202.60454545454544,46.02L203,46.02L203.39545454545456,45.135L203.7909090909091,45.135L204.18636363636364,45.135L204.5818181818182,44.25L204.97727272727272,44.25L205.37272727272725,44.25L205.76818181818183,43.365L206.16363636363639,43.365L206.5590909090909,43.365L206.95454545454544,42.48L207.35,42.48L207.74545454545452,42.48L208.1409090909091,41.595L208.53636363636363,41.595L208.9318181818182,41.595L209.3272727272727,40.709999999999994L209.72272727272727,40.709999999999994L210.1181818181818,40.709999999999994L210.51363636363638,39.824999999999996L210.9090909090909,39.824999999999996L211.30454545454546,39.824999999999996L211.7,38.94L212.09545454545454,38.94L212.4909090909091,38.94L212.88636363636365,38.05499999999999L213.28181818181818,38.05499999999999L213.67727272727274,38.05499999999999L214.07272727272726,37.169999999999995L214.46818181818182,37.169999999999995L214.86363636363637,37.169999999999995L215.25909090909093,36.28499999999999L215.65454545454546,36.28499999999999L216.05,36.28499999999999L216.44545454545454,35.39999999999999L216.84090909090907,35.39999999999999L217.23636363636365,35.39999999999999L217.6318181818182,34.51499999999999L218.02727272727273,34.51499999999999L218.42272727272726,34.51499999999999L218.8181818181818,33.62999999999999L219.21363636363634,33.62999999999999L219.60909090909092,33.62999999999999L220.00454545454545,32.74500000000001L220.4,32.74500000000001L220.79545454545453,32.74500000000001L221.1909090909091,31.86000000000001L221.58636363636361,31.86000000000001L221.9818181818182,31.86000000000001L222.37727272727273,30.97500000000001L222.77272727272728,30.97500000000001L223.1681818181818,30.97500000000001L223.56363636363636,30.090000000000007L223.9590909090909,30.090000000000007L224.35454545454547,30.090000000000007L224.75,29.205000000000005L225.14545454545456,29.205000000000005L225.54090909090908,29.205000000000005L225.93636363636364,28.320000000000004L226.33181818181816,28.320000000000004L226.72727272727275,28.320000000000004L227.12272727272727,27.435000000000006L227.51818181818183,27.435000000000006L227.91363636363636,27.435000000000006L228.3090909090909,26.550000000000004L228.70454545454547,26.550000000000004L229.10000000000002,26.550000000000004L229.49545454545455,25.665000000000003L229.89090909090908,25.665000000000003L230.28636363636363,25.665000000000003L230.68181818181816,24.78L231.07727272727274,24.78L231.47272727272727,24.78L231.86818181818182,23.895000000000003L232.26363636363635,23.895000000000003L232.6590909090909,23.895000000000003L233.05454545454543,23.01L233.45000000000002,23.01L233.84545454545454,23.01L234.2409090909091,22.125L234.63636363636363,22.125L235.03181818181818,22.125L235.4272727272727,21.24L235.8227272727273,21.24L236.21818181818182,21.24L236.61363636363637,20.354999999999997L237.0090909090909,20.354999999999997L237.40454545454546,20.354999999999997L237.79999999999998,19.47L238.19545454545457,19.47L238.5909090909091,19.47L238.98636363636365,18.584999999999997L239.38181818181818,18.584999999999997L239.77727272727273,18.584999999999997L240.17272727272726,17.699999999999996L240.56818181818184,17.699999999999996L240.96363636363637,17.699999999999996L241.35909090909092,16.814999999999994L241.75454545454545,16.814999999999994L242.14999999999998,16.814999999999994L242.54545454545453,15.929999999999994L242.9409090909091,15.929999999999994L243.33636363636364,15.929999999999994L243.73181818181817,15.044999999999995L244.12727272727273,15.044999999999995L244.52272727272725,15.044999999999995L244.91818181818184,14.159999999999993L245.31363636363636,14.159999999999993L245.70909090909092,14.159999999999993L246.10454545454544,13.274999999999991L246.5,13.274999999999991L246.89545454545453,13.274999999999991L247.2909090909091,12.389999999999992L247.68636363636364,12.389999999999992L248.0818181818182,12.389999999999992L248.47727272727272,11.50499999999999L248.87272727272727,11.50499999999999L249.2681818181818,11.50499999999999L249.66363636363639,10.62000000000001L250.0590909090909,10.62000000000001L250.45454545454547,10.62000000000001L250.85,9.735000000000008L251.24545454545455,9.735000000000008L251.64090909090908,9.735000000000008L252.03636363636366,8.850000000000009L252.4318181818182,8.850000000000009L252.82727272727274,8.850000000000009L253.22272727272727,7.965000000000007L253.6181818181818,7.965000000000007L254.01363636363635,7.965000000000007L254.40909090909093,7.080000000000006L254.80454545454546,7.080000000000006L255.2,7.080000000000006L255.59545454545454,6.195000000000006L255.99090909090907,6.195000000000006L256.3863636363636,6.195000000000006L256.7818181818182,5.310000000000005L257.17727272727274,5.310000000000005L257.57272727272726,5.310000000000005L257.9681818181818,4.425000000000004L258.3636363636364,4.425000000000004L258.7590909090909,4.425000000000004L259.1545454545455,3.540000000000003L259.55,3.540000000000003L259.94545454545454,3.540000000000003L260.34090909090907,2.6550000000000025L260.73636363636365,2.6550000000000025L261.1318181818182,2.6550000000000025L261.52727272727276,1.7700000000000016L261.9227272727273,1.7700000000000016L262.3181818181818,1.7700000000000016L262.71363636363634,0.8850000000000008L263.1090909090909,0.8850000000000008L263.50454545454545,0.8850000000000008L263.6363636363636,0" style="fill: none;" fill="none"></path></g></g></g></g></g></g><g transform="translate(40, 177)" clip-path="url(#clip_1)"><clipPath id="clip_1"><rect width="290" height="23"></rect></clipPath><g><g><line x1="0" y1="0" x2="0" y2="5" style="visibility: inherit;" fill="rgb(0, 0, 0)" stroke="rgb(204, 204, 204)" stroke-width="1px"></line><line x1="26.363636363636363" y1="0" x2="26.363636363636363" y2="5" style="visibility: inherit;" fill="rgb(0, 0, 0)" stroke="rgb(204, 204, 204)" stroke-width="1px"></line><line x1="52.72727272727273" y1="0" x2="52.72727272727273" y2="5" style="visibility: inherit;" fill="rgb(0, 0, 0)" stroke="rgb(204, 204, 204)" stroke-width="1px"></line><line x1="79.09090909090908" y1="0" x2="79.09090909090908" y2="5" style="visibility: inherit;" fill="rgb(0, 0, 0)" stroke="rgb(204, 204, 204)" stroke-width="1px"></line><line x1="105.45454545454545" y1="0" x2="105.45454545454545" y2="5" style="visibility: inherit;" fill="rgb(0, 0, 0)" stroke="rgb(204, 204, 204)" stroke-width="1px"></line><line x1="131.8181818181818" y1="0" x2="131.8181818181818" y2="5" style="visibility: inherit;" fill="rgb(0, 0, 0)" stroke="rgb(204, 204, 204)" stroke-width="1px"></line><line x1="158.18181818181816" y1="0" x2="158.18181818181816" y2="5" style="visibility: inherit;" fill="rgb(0, 0, 0)" stroke="rgb(204, 204, 204)" stroke-width="1px"></line><line x1="184.54545454545453" y1="0" x2="184.54545454545453" y2="5" style="visibility: inherit;" fill="rgb(0, 0, 0)" stroke="rgb(204, 204, 204)" stroke-width="1px"></line><line x1="210.9090909090909" y1="0" x2="210.9090909090909" y2="5" style="visibility: inherit;" fill="rgb(0, 0, 0)" stroke="rgb(204, 204, 204)" stroke-width="1px"></line><line x1="237.27272727272728" y1="0" x2="237.27272727272728" y2="5" style="visibility: inherit;" fill="rgb(0, 0, 0)" stroke="rgb(204, 204, 204)" stroke-width="1px"></line><line x1="263.6363636363636" y1="0" x2="263.6363636363636" y2="5" style="visibility: inherit;" fill="rgb(0, 0, 0)" stroke="rgb(204, 204, 204)" stroke-width="1px"></line><line x1="290" y1="0" x2="290" y2="5" style="visibility: inherit;" fill="rgb(0, 0, 0)" stroke="rgb(204, 204, 204)" stroke-width="1px"></line></g><g transform="translate(0, 8)"><text x="0" y="0" dx="0em" dy="0.95em" style="text-anchor: middle; visibility: hidden; font-family: Roboto, sans-serif; font-size: 12px; font-weight: 200;" fill="rgb(255, 255, 255)" stroke="none" stroke-width="1px">-200</text><text x="26.363636363636363" y="0" dx="0em" dy="0.95em" style="text-anchor: middle; visibility: inherit; font-family: Roboto, sans-serif; font-size: 12px; font-weight: 200;" fill="rgb(255, 255, 255)" stroke="none" stroke-width="1px">0</text><text x="52.72727272727273" y="0" dx="0em" dy="0.95em" style="text-anchor: middle; visibility: hidden; font-family: Roboto, sans-serif; font-size: 12px; font-weight: 200;" fill="rgb(255, 255, 255)" stroke="none" stroke-width="1px">200</text><text x="79.09090909090908" y="0" dx="0em" dy="0.95em" style="text-anchor: middle; visibility: inherit; font-family: Roboto, sans-serif; font-size: 12px; font-weight: 200;" fill="rgb(255, 255, 255)" stroke="none" stroke-width="1px">400</text><text x="105.45454545454545" y="0" dx="0em" dy="0.95em" style="text-anchor: middle; visibility: hidden; font-family: Roboto, sans-serif; font-size: 12px; font-weight: 200;" fill="rgb(255, 255, 255)" stroke="none" stroke-width="1px">600</text><text x="131.8181818181818" y="0" dx="0em" dy="0.95em" style="text-anchor: middle; visibility: inherit; font-family: Roboto, sans-serif; font-size: 12px; font-weight: 200;" fill="rgb(255, 255, 255)" stroke="none" stroke-width="1px">800</text><text x="158.18181818181816" y="0" dx="0em" dy="0.95em" style="text-anchor: middle; visibility: hidden; font-family: Roboto, sans-serif; font-size: 12px; font-weight: 200;" fill="rgb(255, 255, 255)" stroke="none" stroke-width="1px">1k</text><text x="184.54545454545453" y="0" dx="0em" dy="0.95em" style="text-anchor: middle; visibility: inherit; font-family: Roboto, sans-serif; font-size: 12px; font-weight: 200;" fill="rgb(255, 255, 255)" stroke="none" stroke-width="1px">1.2k</text><text x="210.9090909090909" y="0" dx="0em" dy="0.95em" style="text-anchor: middle; visibility: hidden; font-family: Roboto, sans-serif; font-size: 12px; font-weight: 200;" fill="rgb(255, 255, 255)" stroke="none" stroke-width="1px">1.4k</text><text x="237.27272727272728" y="0" dx="0em" dy="0.95em" style="text-anchor: middle; visibility: inherit; font-family: Roboto, sans-serif; font-size: 12px; font-weight: 200;" fill="rgb(255, 255, 255)" stroke="none" stroke-width="1px">1.6k</text><text x="263.6363636363636" y="0" dx="0em" dy="0.95em" style="text-anchor: middle; visibility: hidden; font-family: Roboto, sans-serif; font-size: 12px; font-weight: 200;" fill="rgb(255, 255, 255)" stroke="none" stroke-width="1px">1.8k</text><text x="290" y="0" dx="0em" dy="0.95em" style="text-anchor: middle; visibility: hidden; font-family: Roboto, sans-serif; font-size: 12px; font-weight: 200;" fill="rgb(255, 255, 255)" stroke="none" stroke-width="1px">2k</text></g><line x1="0" y1="0" x2="290" y2="0" fill="rgb(0, 0, 0)" stroke="rgb(204, 204, 204)" stroke-width="1px"></line></g></g></g></g></svg>