<svg viewBox="0 0 330 200" xmlns="http://www.w3.org/2000/svg"><g><g><g><g><g><line x1="41.171875" y1="159.42179313900976" x2="36.171875" y2="159.42179313900976" style="visibility: inherit;" fill="rgb(0, 0, 0)" stroke="rgb(204, 204, 204)" stroke-width="1px"></line><line x1="41.171875" y1="141.72179313900986" x2="36.171875" y2="141.72179313900986" style="visibility: inherit;" fill="rgb(0, 0, 0)" stroke="rgb(204, 204, 204)" stroke-width="1px"></line><line x1="41.171875" y1="124.02179313900994" x2="36.171875" y2="124.02179313900994" style="visibility: inherit;" fill="rgb(0, 0, 0)" stroke="rgb(204, 204, 204)" stroke-width="1px"></line><line x1="41.171875" y1="106.32179313901001" x2="36.171875" y2="106.32179313901001" style="visibility: inherit;" fill="rgb(0, 0, 0)" stroke="rgb(204, 204, 204)" stroke-width="1px"></line><line x1="41.171875" y1="88.62179313901011" x2="36.171875" y2="88.62179313901011" style="visibility: inherit;" fill="rgb(0, 0, 0)" stroke="rgb(204, 204, 204)" stroke-width="1px"></line><line x1="41.171875" y1="70.92179313901019" x2="36.171875" y2="70.92179313901019" style="visibility: inherit;" fill="rgb(0, 0, 0)" stroke="rgb(204, 204, 204)" stroke-width="1px"></line><line x1="41.171875" y1="53.22179313901027" x2="36.171875" y2="53.22179313901027" style="visibility: inherit;" fill="rgb(0, 0, 0)" stroke="rgb(204, 204, 204)" stroke-width="1px"></line><line x1="41.171875" y1="35.521793139010335" x2="36.171875" y2="35.521793139010335" style="visibility: inherit;" fill="rgb(0, 0, 0)" stroke="rgb(204, 204, 204)" stroke-width="1px"></line><line x1="41.171875" y1="17.82179313901042" x2="36.171875" y2="17.82179313901042" style="visibility: inherit;" fill="rgb(0, 0, 0)" stroke="rgb(204, 204, 204)" stroke-width="1px"></line><line x1="41.171875" y1="0.12179313901050204" x2="36.171875" y2="0.12179313901050204" style="visibility: inherit;" fill="rgb(0, 0, 0)" stroke="rgb(204, 204, 204)" stroke-width="1px"></line></g><g transform="translate(31.171875, 0)"><text x="0" y="159.42179313900976" dx="0em" dy="0.3em" style="text-anchor: end; visibility: inherit; font-family: Roboto, sans-serif; font-size: 12px; font-weight: 200;" fill="rgb(255, 255, 255)" stroke="none" stroke-width="1px">0.1</text><text x="0" y="141.72179313900986" dx="0em" dy="0.3em" style="text-anchor: end; visibility: hidden; font-family: Roboto, sans-serif; font-size: 12px; font-weight: 200;" fill="rgb(255, 255, 255)" stroke="none" stroke-width="1px">0.2</text><text x="0" y="124.02179313900994" dx="0em" dy="0.3em" style="text-anchor: end; visibility: inherit; font-family: Roboto, sans-serif; font-size: 12px; font-weight: 200;" fill="rgb(255, 255, 255)" stroke="none" stroke-width="1px">0.3</text><text x="0" y="106.32179313901001" dx="0em" dy="0.3em" style="text-anchor: end; visibility: hidden; font-family: Roboto, sans-serif; font-size: 12px; font-weight: 200;" fill="rgb(255, 255, 255)" stroke="none" stroke-width="1px">0.4</text><text x="0" y="88.62179313901011" dx="0em" dy="0.3em" style="text-anchor: end; visibility: inherit; font-family: Roboto, sans-serif; font-size: 12px; font-weight: 200;" fill="rgb(255, 255, 255)" stroke="none" stroke-width="1px">0.5</text><text x="0" y="70.92179313901019" dx="0em" dy="0.3em" style="text-anchor: end; visibility: hidden; font-family: Roboto, sans-serif; font-size: 12px; font-weight: 200;" fill="rgb(255, 255, 255)" stroke="none" stroke-width="1px">0.6</text><text x="0" y="53.22179313901027" dx="0em" dy="0.3em" style="text-anchor: end; visibility: inherit; font-family: Roboto, sans-serif; font-size: 12px; font-weight: 200;" fill="rgb(255, 255, 255)" stroke="none" stroke-width="1px">0.7</text><text x="0" y="35.521793139010335" dx="0em" dy="0.3em" style="text-anchor: end; visibility: hidden; font-family: Roboto, sans-serif; font-size: 12px; font-weight: 200;" fill="rgb(255, 255, 255)" stroke="none" stroke-width="1px">0.8</text><text x="0" y="17.82179313901042" dx="0em" dy="0.3em" style="text-anchor: end; visibility: inherit; font-family: Roboto, sans-serif; font-size: 12px; font-weight: 200;" fill="rgb(255, 255, 255)" stroke="none" stroke-width="1px">0.9</text><text x="0" y="0.12179313901050204" dx="0em" dy="0.3em" style="text-anchor: end; visibility: hidden; font-family: Roboto, sans-serif; font-size: 12px; font-weight: 200;" fill="rgb(255, 255, 255)" stroke="none" stroke-width="1px">1</text></g><line x1="41.171875" y1="0" x2="41.171875" y2="177" fill="rgb(0, 0, 0)" stroke="rgb(204, 204, 204)" stroke-width="1px"></line></g></g><g transform="translate(41, 0)" clip-path="url(#clip_0)"><clipPath id="clip_0"><rect width="288" height="177"></rect></clipPath><g><g><g><line x1="24.805500843926954" y1="0" x2="24.805500843926954" y2="177" fill="rgb(0, 0, 0)" stroke="rgb(189, 189, 189)" stroke-width="1px" opacity="0.25"></line><line x1="51.062603116654195" y1="0" x2="51.062603116654195" y2="177" fill="rgb(0, 0, 0)" stroke="rgb(189, 189, 189)" stroke-width="1px" opacity="0.25"></line><line x1="77.31970538938144" y1="0" x2="77.31970538938144" y2="177" fill="rgb(0, 0, 0)" stroke="rgb(189, 189, 189)" stroke-width="1px" opacity="0.25"></line><line x1="103.57680766210866" y1="0" x2="103.57680766210866" y2="177" fill="rgb(0, 0, 0)" stroke="rgb(189, 189, 189)" stroke-width="1px" opacity="0.25"></line><line x1="129.83390993483593" y1="0" x2="129.83390993483593" y2="177" fill="rgb(0, 0, 0)" stroke="rgb(189, 189, 189)" stroke-width="1px" opacity="0.25"></line><line x1="156.09101220756315" y1="0" x2="156.09101220756315" y2="177" fill="rgb(0, 0, 0)" stroke="rgb(189, 189, 189)" stroke-width="1px" opacity="0.25"></line><line x1="182.34811448029038" y1="0" x2="182.34811448029038" y2="177" fill="rgb(0, 0, 0)" stroke="rgb(189, 189, 189)" stroke-width="1px" opacity="0.25"></line><line x1="208.60521675301763" y1="0" x2="208.60521675301763" y2="177" fill="rgb(0, 0, 0)" stroke="rgb(189, 189, 189)" stroke-width="1px" opacity="0.25"></line><line x1="234.86231902574488" y1="0" x2="234.86231902574488" y2="177" fill="rgb(0, 0, 0)" stroke="rgb(189, 189, 189)" stroke-width="1px" opacity="0.25"></line><line x1="261.1194212984721" y1="0" x2="261.1194212984721" y2="177" fill="rgb(0, 0, 0)" stroke="rgb(189, 189, 189)" stroke-width="1px" opacity="0.25"></line><line x1="287.3765235711993" y1="0" x2="287.3765235711993" y2="177" fill="rgb(0, 0, 0)" stroke="rgb(189, 189, 189)" stroke-width="1px" opacity="0.25"></line></g><g><line x1="0" y1="159.42179313900976" x2="288.828125" y2="159.42179313900976" fill="rgb(0, 0, 0)" stroke="rgb(189, 189, 189)" stroke-width="1px" opacity="0.25"></line><line x1="0" y1="141.72179313900986" x2="288.828125" y2="141.72179313900986" fill="rgb(0, 0, 0)" stroke="rgb(189, 189, 189)" stroke-width="1px" opacity="0.25"></line><line x1="0" y1="124.02179313900994" x2="288.828125" y2="124.02179313900994" fill="rgb(0, 0, 0)" stroke="rgb(189, 189, 189)" stroke-width="1px" opacity="0.25"></line><line x1="0" y1="106.32179313901001" x2="288.828125" y2="106.32179313901001" fill="rgb(0, 0, 0)" stroke="rgb(189, 189, 189)" stroke-width="1px" opacity="0.25"></line><line x1="0" y1="88.62179313901011" x2="288.828125" y2="88.62179313901011" fill="rgb(0, 0, 0)" stroke="rgb(189, 189, 189)" stroke-width="1px" opacity="0.25"></line><line x1="0" y1="70.92179313901019" x2="288.828125" y2="70.92179313901019" fill="rgb(0, 0, 0)" stroke="rgb(189, 189, 189)" stroke-width="1px" opacity="0.25"></line><line x1="0" y1="53.22179313901027" x2="288.828125" y2="53.22179313901027" fill="rgb(0, 0, 0)" stroke="rgb(189, 189, 189)" stroke-width="1px" opacity="0.25"></line><line x1="0" y1="35.521793139010335" x2="288.828125" y2="35.521793139010335" fill="rgb(0, 0, 0)" stroke="rgb(189, 189, 189)" stroke-width="1px" opacity="0.25"></line><line x1="0" y1="17.82179313901042" x2="288.828125" y2="17.82179313901042" fill="rgb(0, 0, 0)" stroke="rgb(189, 189, 189)" stroke-width="1px" opacity="0.25"></line><line x1="0" y1="0.12179313901050204" x2="288.828125" y2="0.12179313901050204" fill="rgb(0, 0, 0)" stroke="rgb(189, 189, 189)" stroke-width="1px" opacity="0.25"></line></g></g></g><g><g><line x1="0" y1="177.12179313900972" x2="288.828125" y2="177.12179313900972" fill="rgb(0, 0, 0)" stroke="rgb(153, 153, 153)" stroke-width="1.5px"></line></g></g><g><g><line x1="24.805500843926954" y1="0" x2="24.805500843926954" y2="177" fill="rgb(0, 0, 0)" stroke="rgb(153, 153, 153)" stroke-width="1.5px"></line></g></g><g><g><g><g><g><path stroke="rgb(255, 112, 67)" stroke-width="2px" d="M25.461928400745137,177.1143323641377L25.855784934836045,176.8182844153894L26.249641468926953,176.8167991906926L26.64349800301786,176.71743646541702L27.037354537108772,176.93827836830727L27.43121107119968,175.02794458924885L27.825067605290588,177.12179313900972L28.218924139381492,177.12179313900972L28.6127806734724,176.68903028357866L29.006637207563312,175.2337931592306L29.40049374165422,176.06191286000515L29.794350275745128,177.12179313900972L30.975919878017855,177.03906675289593L31.369776412108763,176.33860730121935L31.76363294619967,177.12179313900972L38.06533749165421,177.12179313900972L38.45919402574511,176.21873193302284L38.85305055983603,177.12179313900972L42.791615900745114,177.12179313900972L43.18547243483602,163.66531113091023L43.57932896892693,177.12179313900972L45.54861163938148,177.12179313900972L45.94246817347238,155.21679143163473L46.33632470756329,177.12179313900972L46.73018124165419,176.50964158119726L47.12403777574511,177.12179313900972L47.51789430983602,175.06365361179317L47.911750843926924,177.12179313900972L48.30560737801783,176.93246116440835L48.69946391210875,177.12179313900972L49.09332044619965,177.12179313900972L49.48717698029056,176.28293054851795L49.881033514381464,177.12179313900972L50.66874658256329,177.02246654549938L51.062603116654195,173.37014658677484L51.4564596507451,176.73509646065625L51.850316184836004,177.12179313900972L52.24417271892692,177.0991103003876L52.638029253017834,164.8901937559536L53.031885787108735,177.12179313900972L53.42574232119964,172.30677392075862L53.81959885529056,177.12179313900972L54.21345538938146,150.9544967741064L54.60731192347237,159.03138930651457L55.001168457563274,177.12179313900972L55.39502499165419,143.40875169935742L55.7888815257451,177.1081562502118L56.57659459392691,177.12179313900972L56.97045112801783,160.87277698072702L57.36430766210873,177.12179313900972L57.758164196199644,177.12179313900972L58.152020730290545,172.6645307757249L58.54587726438146,177.08633404072L58.93973379847237,177.12179313900972L59.33359033256327,149.00544876161135L59.727446866654184,177.12179313900972L60.515159934836,177.12179313900972L60.90901646892691,175.34856915774847L61.302873003017815,138.01943114700833L61.69672953710872,177.12179313900972L62.09058607119964,160.2242354706219L62.48444260529054,177.12179313900972L64.45372527574509,177.12179313900972L64.847581809836,172.8763521418264L65.2414383439269,177.12179313900972L66.81686448029053,177.12179313900972L67.21072101438145,108.60846717956596L67.60457754847235,176.63530664493422L67.99843408256326,176.0583134891754L68.39229061665418,140.180342066317L68.78614715074508,168.6720812872341L69.180003684836,177.12179313900972L70.75542982119963,177.12179313900972L71.14928635529053,172.00952045361603L71.54314288938144,176.6798455826761L71.93699942347234,177.12179313900972L73.11856902574507,177.12179313900972L73.51242555983598,162.1269926235369L73.9062820939269,177.12179313900972L74.3001386280178,176.09887560431937L74.6939951621087,144.30779557230989L75.08785169619962,144.75345224442998L75.48170823029052,177.12179313900972L75.87556476438144,177.12179313900972L76.26942129847235,104.88252641561564L76.66327783256325,141.37112570109883L77.05713436665415,176.96290624104998L77.45099090074507,177.12179313900972L77.84484743483598,140.71980953517476L78.23870396892688,177.092567795346L78.63256050301779,151.92764927747763L79.02641703710871,176.86044207714124L79.42027357119962,148.4999470889858L79.81413010529052,176.80556036751344L80.20798663938143,177.12179313900972L80.60184317347235,171.24733443486596L80.99569970756325,173.75401672463025L81.38955624165416,163.02006254646093L81.78341277574506,129.70838482978866L82.17726930983596,177.12179313900972L82.5711258439269,134.64606420996708L82.9649823780178,174.82904700025077L83.3588389121087,176.96786420540278L83.7526954461996,71.73756937983585L84.14655198029052,142.19655943217793L84.54040851438143,171.79637769724334L84.93426504847233,128.39455892446563L85.32812158256324,177.1120148538362L86.50969118483597,177.12179313900972L86.90354771892687,144.32375511827985L87.29740425301777,136.37509942355675L87.6912607871087,177.12179313900972L88.0851173211996,140.17225019934693L88.4789738552905,177.12179313900972L88.87283038938143,141.7888221770815L89.26668692347234,177.12179313900972L90.05439999165414,177.12179313900972L90.44825652574505,102.18158360126552L90.84211305983597,176.79672427066228L91.23596959392687,173.41686933788563L91.62982612801778,128.6312750459008L92.02368266210868,41.50592182877625L92.4175391961996,141.22298756542722L92.81139573029051,177.12179313900972L93.20525226438141,127.56827591660543L93.59910879847232,177.12179313900972L93.99296533256324,167.1115101456931L94.38682186665415,143.71018956902543L94.78067840074505,177.0953030714559L95.56839146892688,177.12179313900972L95.96224800301778,176.72043258927854L96.35610453710868,177.12179313900972L96.74996107119959,135.53398835959953L97.1438176052905,177.112775103215L97.53767413938141,137.94016883078137L97.93153067347232,106.09622206094798L98.32538720756322,126.54848440292405L98.71924374165413,177.12179313900972L99.11310027574505,88.89375160935465L99.50695680983596,176.6584423489226L99.90081334392686,177.12179313900972L100.29466987801777,125.00281121137667L100.68852641210869,139.99864167275945L101.08238294619959,140.67438905242005L101.47623948029049,160.97847105863602L101.8700960143814,137.93988661768952L102.2639525484723,177.12179313900972L102.65780908256322,129.2858458936505L103.05166561665413,138.87205756011525L103.44552215074503,177.12179313900972L103.83937868483594,35.6150215745267L104.23323521892686,127.40349512103124L104.62709175301777,176.78009430375508L105.02094828710867,98.38153420689642L105.41480482119958,177.12179313900972L105.8086613552905,131.68978976014182L106.2025178893814,177.12179313900972L106.59637442347231,177.12179313900972L106.99023095756321,102.35243593457278L107.38408749165413,177.12179313900972L107.77794402574503,177.12179313900972L108.17180055983594,91.42756097319665L108.56565709392684,151.75996458831347L108.95951362801775,174.59480139727796L109.35337016210867,172.67313003282155L109.74722669619958,133.92738879027888L110.14108323029048,140.84881256821672L110.5349397643814,177.12179313900972L110.9287962984723,138.09526998105565L111.32265283256321,128.2900715053372L111.71650936665412,136.88290363851112L112.11036590074502,177.12179313900972L112.50422243483594,177.12179313900972L112.89807896892685,138.01699145439187L113.29193550301775,177.12179313900972L113.68579203710865,140.54512226882497L114.07964857119957,177.12179313900972L114.47350510529049,176.97810873020765L114.86736163938139,173.17952054481114L115.26121817347229,155.96773145648748L115.65507470756322,177.12179313900972L116.04893124165412,141.31018349829236L116.44278777574502,150.75582403245485L116.83664430983593,177.12179313900972L117.23050084392683,127.52225144508405L117.62435737801775,115.72672008278899L118.01821391210866,125.87259723547028L118.41207044619956,175.52514372415L118.80592698029047,177.12179313900972L119.19978351438138,144.03680506649533L119.5936400484723,177.12179313900972L119.9874965825632,165.1461834490588L120.3813531166541,129.47193773391768L120.77520965074503,140.35372640493432L121.16906618483593,123.7211259484582L121.56292271892683,177.12179313900972L121.95677925301774,167.2371780529907L122.35063578710866,135.88984060588402L122.74449232119956,138.5819293141655L123.13834885529047,137.34636874797863L123.53220538938137,116.18446971777011L123.92606192347228,177.12179313900972L124.3199184575632,139.373365598946L124.7137749916541,117.78982965949108L125.107631525745,177.12179313900972L125.5014880598359,161.39280603381903L125.89534459392684,143.71090169551888L126.28920112801774,110.884687203198L126.68305766210864,177.12179313900972L127.07691419619955,177.12179313900972L127.47077073029047,156.64791248294623L127.86462726438137,177.12179313900972L128.2584837984723,85.25544987919872L128.6523403325632,112.95132048728995L129.0461968666541,137.00402316752L129.440053400745,133.84448144140765L129.83390993483593,123.08955414894152L130.22776646892683,65.23072718384816L130.62162300301773,120.25993798974085L131.01547953710863,157.8893072113684L131.40933607119953,165.9958466247013L131.80319260529046,130.02960662844703L132.19704913938136,160.78333125564367L132.59090567347226,160.67197840961725L132.98476220756316,98.24398301842749L133.3786187416541,177.12179313900972L133.772475275745,164.30643070045022L134.1663318098359,161.03088356855423L134.56018834392682,177.12179313900972L134.95404487801773,78.01587699654647L135.34790141210863,175.448034271813L135.74175794619956,123.2466861784749L136.13561448029046,143.05553959610978L136.52947101438136,144.24008553031007L136.92332754847226,125.69893332126664L137.3171840825632,169.7055917859366L137.7110406166541,97.96048282387792L138.104897150745,177.12179313900972L138.49875368483592,138.69857299628774L138.89261021892682,159.10514714869768L139.28646675301772,176.71301716005522L139.68032328710862,140.05319319966355L140.07417982119955,117.74749769571353L140.46803635529045,117.32225795391132L140.86189288938135,140.723494130402L141.25574942347225,134.7324161410622L141.64960595756318,133.41809174719378L142.04346249165408,152.6545431644014L142.43731902574498,173.6316522930106L142.83117555983588,105.73783780935344L143.22503209392679,174.9275782725131L143.61888862801771,177.12179313900972L144.01274516210862,164.46646794232635L144.40660169619952,130.94688357713744L144.80045823029045,128.52789010408446L145.19431476438135,113.98292275074057L145.58817129847225,143.96937460008184L145.98202783256315,165.57831499281434L146.37588436665405,177.12179313900972L146.769740900745,168.8522512682071L147.1635974348359,136.93968122008366L147.5574539689268,157.37072087380201L147.9513105030177,175.5484597675791L148.3451670371086,118.53159644010591L148.7390235711995,146.3089844316534L149.13288010529044,70.30463372471881L149.52673663938134,158.1150816411069L149.92059317347227,84.05590181353634L150.31444970756317,171.50162557440902L150.70830624165407,159.89904290738613L151.10216277574497,154.65439480844054L151.4960193098359,150.1962851465038L151.8898758439268,113.00476689937643L152.2837323780177,165.78485145720748L152.6775889121086,137.21613399985355L153.0714454461995,162.73384967747242L153.46530198029043,112.2785772264295L153.85915851438133,94.96130143406927L154.25301504847226,173.62837222519423L154.64687158256316,21.03932200673196L155.04072811665407,115.92278696897559L155.43458465074497,166.69044293764142L155.82844118483587,117.54417239430477L156.22229771892677,156.87977163794548L156.61615425301773,156.08143563869507L157.01001078710863,177.00559421656047L157.40386732119953,127.78243081572576L157.79772385529043,171.45779286998416L158.19158038938133,129.86297430398986L158.58543692347223,137.8542336255602L158.97929345756313,148.95563946965254L159.37314999165406,174.77635112333203L159.767006525745,129.72812919619605L160.1608630598359,155.78221459242613L160.5547195939268,105.23744498494204L160.9485761280177,143.40970383885423L161.3424326621086,170.59929800707008L161.73628919619952,122.1876327574544L162.13014573029042,137.7533437639765L162.52400226438132,127.28109376433416L162.91785879847222,85.29584591391628L163.31171533256315,153.09659172895465L163.70557186665405,85.77267526391094L164.09942840074496,99.4891230047041L164.49328493483588,64.50509666207387L164.88714146892679,125.05125691297577L165.2809980030177,161.30979318472654L165.6748545371086,116.10760753157668L166.0687110711995,143.29853825572053L166.4625676052904,177.12179313900972L166.85642413938135,110.95927058461241L167.25028067347225,74.92759011986801L167.64413720756315,177.12179313900972L168.03799374165405,147.20308561924017L168.43185027574495,97.16666223409712L168.82570680983585,93.9500132382208L169.21956334392678,118.02761660817195L169.61341987801768,110.76153151991896L170.0072764121086,169.39484352174307L170.4011329461995,113.01999058130316L170.7949894802904,145.34660350087205L171.1888460143813,166.26690174940137L171.5827025484722,133.31850745084807L171.97655908256314,136.3431618690781L172.37041561665404,146.34982620480577L172.76427215074494,132.17860921028182L173.15812868483584,126.58832656148003L173.55198521892677,176.89703124352357L173.94584175301767,149.42121722105063L174.3396982871086,135.0727282047562L174.7335548211995,103.97253425720271L175.1274113552904,117.91327546837856L175.5212678893813,97.76383041146337L175.9151244234722,166.67036426740793L176.3089809575631,162.19352238181145L176.70283749165404,98.65486945512829L177.09669402574497,125.17910208108948L177.49055055983587,84.30524103644436L177.88440709392677,127.99574698808713L178.27826362801767,174.68880357801075L178.67212016210857,158.87517512890608L179.06597669619947,141.00009724798718L179.4598332302904,132.12428187134788L179.85368976438133,154.00358240607295L180.24754629847223,115.32567154171996L180.64140283256313,142.7178571254305L181.03525936665403,155.2750763476184L181.42911590074493,140.17570796909848L181.82297243483583,87.18357192280833L182.21682896892676,147.44669090512312L182.61068550301766,162.94985874298126L183.00454203710856,115.53419800403647L183.3983985711995,98.16760613325178L183.7922551052904,154.42432256343875L184.1861116393813,111.83221634033255L184.57996817347222,121.89061270955133L184.97382470756313,134.97893587055725L185.36768124165403,176.12685220244433L185.76153777574493,158.41592607203037L186.15539430983583,110.87009652259879L186.54925084392673,160.37854932549507L186.9431073780177,87.78286592963282L187.3369639121086,132.3337367356114L187.7308204461995,86.19435964825695L188.1246769802904,155.84584573212177L188.5185335143813,84.78714494708126L188.9123900484722,123.72381092908907L189.3062465825631,147.85167196693934L189.70010311665405,103.23854284289416L190.09395965074495,113.70871712568335L190.48781618483585,140.03643976452867L190.88167271892675,113.84937529566817L191.27552925301765,150.31425285640276L191.66938578710855,119.66686849597025L192.06324232119948,104.70884667637881L192.45709885529038,137.59736696186584L192.85095538938128,65.5693828940685L193.2448119234722,68.8306690335567L193.6386684575631,120.39336411955881L194.03252499165401,120.5818824649148L194.42638152574492,101.39246832135257L194.82023805983584,96.10560430887281L195.21409459392675,105.0889164984518L195.60795112801765,115.05804385545783L196.00180766210855,76.95310996773789L196.39566419619945,114.66150017383627L196.78952073029038,149.8910228938154L197.1833772643813,47.65976028445325L197.5772337984722,77.63933615687438L197.9710903325631,122.79536150696802L198.364946866654,81.73845230343886L198.7588034007449,76.34464799168656L199.1526599348358,121.44550727608728L199.54651646892674,113.49434067609839L199.94037300301767,89.53249214890543L200.33422953710857,94.34664132001936L200.72808607119947,126.84108399155663L201.12194260529037,143.74051824512998L201.51579913938127,84.19879131320064L201.90965567347217,102.58283259275493L202.3035122075631,120.92691038849878L202.697368741654,99.6779789507681L203.0912252757449,137.17460647526306L203.48508180983583,83.7441592097575L203.87893834392673,122.49890588524866L204.27279487801763,144.76695363524476L204.66665141210856,122.67740170958567L205.06050794619946,163.76330237391502L205.45436448029037,89.4602825224692L205.84822101438127,100.47838275435505L206.24207754847217,124.10628088119554L206.63593408256307,148.65486625137842L207.029790616654,107.80278836491638L207.42364715074493,96.76169963481962L207.81750368483583,110.4712423861318L208.21136021892673,92.09847380521833L208.60521675301763,75.9218980551059L208.99907328710853,137.3328620821528L209.39292982119943,71.61106406453204L209.7867863552904,106.84484108093318L210.1806428893813,109.62067850235037L210.5744994234722,100.89746128323611L210.9683559575631,117.56936584713985L211.362212491654,105.29355000260409L211.7560690257449,81.32885824444838L212.1499255598358,114.60988946559958L212.54378209392672,96.56646620038092L212.93763862801762,66.34752087596013L213.33149516210855,51.51456956866343L213.72535169619945,72.64780418875766L214.11920823029035,127.1636614680581L214.51306476438126,126.62148000600861L214.90692129847218,99.41455017331181L215.30077783256309,82.65438412430828L215.694634366654,58.62073742154198L216.0884909007449,111.19598670604758L216.4823474348358,66.99974434378697L216.87620396892672,119.16890745165873L217.27006050301765,105.55884085896548L217.66391703710855,99.35518519881306L218.05777357119945,74.24204968216965L218.45163010529035,133.63802805843875L218.84548663938125,78.78598641160079L219.23934317347215,100.17800779941616L219.63319970756305,36.788817036181364L220.027056241654,52.553050446539714L220.4209127757449,123.74083866479921L220.8147693098358,109.38425778153473L221.2086258439267,47.431816506415224L221.6024823780176,82.50061755183285L221.9963389121085,101.42027290466365L222.39019544619944,35.12832795384494L222.78405198029034,39.92433636191453L223.17790851438127,88.48013799193446L223.57176504847217,113.86445127728514L223.96562158256307,46.5978900075253L224.35947811665397,39.26863138678635L224.75333465074488,101.27883930805262L225.1471911848358,55.332158374815755L225.5410477189267,44.382290411024925L225.9349042530176,111.9903558969789L226.3287607871085,97.377493876248L226.72261732119944,88.95502086284701L227.11647385529034,39.37800346615876L227.51033038938127,72.0261230349834L227.90418692347217,28.930770206480915L228.29804345756307,51.49084256890376L228.69189999165397,103.48058672550258L229.08575652574487,79.36396937373229L229.47961305983577,59.82820855382041L229.87346959392667,23.7925929308233L230.26732612801763,98.53853436115322L230.66118266210853,79.28270255330153L231.05503919619943,106.76978294852313L231.44889573029033,30.467222678690845L231.84275226438123,27.84192352297874L232.23660879847213,67.86041514876439L232.63046533256306,40.34194843772019L233.02432186665396,47.329818892508364L233.4181784007449,24.2581548571882L233.8120349348358,129.16070680621192L234.2058914689267,72.2884493351276L234.5997480030176,101.42236708405551L234.99360453710852,83.24849807026928L235.38746107119943,66.91644136908604L235.78131760529033,77.5820073366458L236.17517413938123,45.550526011019585L236.56903067347213,72.4637274027164L236.96288720756306,77.39796220067093L237.35674374165396,23.49103109839532L237.7506002757449,41.35642801526154L238.1444568098358,37.4374429464635L238.5383133439267,75.82975416186402L238.9321698780176,62.5092856765087L239.3260264121085,79.75843470099517L239.7198829461994,53.33834134343226L240.11373948029035,75.89032183888504L240.50759601438125,37.874456512957465L240.90145254847215,110.29526274207167L241.29530908256305,66.23835979703023L241.68916561665395,35.076601195364866L242.08302215074485,33.8876770019826L242.47687868483575,83.95272259715145L242.87073521892668,63.384167361288824L243.2645917530176,81.9842994690234L243.6584482871085,28.046013700991587L244.0523048211994,174.3852439999869L244.44616135529031,42.57239191535079L244.84001788938122,53.66526542904933L245.23387442347214,109.23138268592888L245.62773095756305,131.01583324673697L246.02158749165395,67.7021542668636L246.41544402574485,44.302985894709465L246.80930055983578,132.76718439462707L247.20315709392668,51.801857221155956L247.59701362801758,28.50848447087379L247.9908701621085,177.12179313900972L248.3847266961994,96.9079229414755L248.7785832302903,26.23077689412208L249.1724397643812,87.63883702757899L249.5662962984721,77.18260459902832L249.960152832563,109.99423896077208L250.35400936665397,28.78845040801137L250.74786590074487,81.1609862923915L251.14172243483577,30.166663098364765L251.53557896892667,24.1210784197149L251.92943550301757,20.28225241902444L252.32329203710847,61.56686275008277L252.7171485711994,40.19190602305497L253.11100510529033,37.99565516713227L253.50486163938123,67.3227227211292L253.89871817347213,85.63777213099544L254.29257470756303,61.998116004496374L254.68643124165393,42.01134173873032L255.08028777574484,76.16623656752655L255.47414430983576,94.5037364244753L255.86800084392667,10.117749202281031L256.26185737801757,23.910457778006528L256.65571391210847,20.781964767008756L257.04957044619937,97.76435791256964L257.44342698029027,97.91745455864012L257.8372835143812,55.07377778294642L258.2311400484721,50.93635450604518L258.624996582563,66.85038768055989L259.01885311665393,51.11831073763926L259.41270965074483,20.051164734393094L259.80656618483573,15.95160548689937L260.20042271892663,75.50166957381317L260.5942792530176,51.15789442065318L260.9881357871085,17.54516522887325" style="fill: none;" fill="none"></path></g></g></g></g></g></g><g transform="translate(41, 177)" clip-path="url(#clip_1)"><clipPath id="clip_1"><rect width="288" height="23"></rect></clipPath><g><g><line x1="24.805500843926954" y1="0" x2="24.805500843926954" y2="5" style="visibility: inherit;" fill="rgb(0, 0, 0)" stroke="rgb(204, 204, 204)" stroke-width="1px"></line><line x1="51.062603116654195" y1="0" x2="51.062603116654195" y2="5" style="visibility: inherit;" fill="rgb(0, 0, 0)" stroke="rgb(204, 204, 204)" stroke-width="1px"></line><line x1="77.31970538938144" y1="0" x2="77.31970538938144" y2="5" style="visibility: inherit;" fill="rgb(0, 0, 0)" stroke="rgb(204, 204, 204)" stroke-width="1px"></line><line x1="103.57680766210866" y1="0" x2="103.57680766210866" y2="5" style="visibility: inherit;" fill="rgb(0, 0, 0)" stroke="rgb(204, 204, 204)" stroke-width="1px"></line><line x1="129.83390993483593" y1="0" x2="129.83390993483593" y2="5" style="visibility: inherit;" fill="rgb(0, 0, 0)" stroke="rgb(204, 204, 204)" stroke-width="1px"></line><line x1="156.09101220756315" y1="0" x2="156.09101220756315" y2="5" style="visibility: inherit;" fill="rgb(0, 0, 0)" stroke="rgb(204, 204, 204)" stroke-width="1px"></line><line x1="182.34811448029038" y1="0" x2="182.34811448029038" y2="5" style="visibility: inherit;" fill="rgb(0, 0, 0)" stroke="rgb(204, 204, 204)" stroke-width="1px"></line><line x1="208.60521675301763" y1="0" x2="208.60521675301763" y2="5" style="visibility: inherit;" fill="rgb(0, 0, 0)" stroke="rgb(204, 204, 204)" stroke-width="1px"></line><line x1="234.86231902574488" y1="0" x2="234.86231902574488" y2="5" style="visibility: inherit;" fill="rgb(0, 0, 0)" stroke="rgb(204, 204, 204)" stroke-width="1px"></line><line x1="261.1194212984721" y1="0" x2="261.1194212984721" y2="5" style="visibility: inherit;" fill="rgb(0, 0, 0)" stroke="rgb(204, 204, 204)" stroke-width="1px"></line><line x1="287.3765235711993" y1="0" x2="287.3765235711993" y2="5" style="visibility: inherit;" fill="rgb(0, 0, 0)" stroke="rgb(204, 204, 204)" stroke-width="1px"></line></g><g transform="translate(0, 8)"><text x="24.805500843926954" y="0" dx="0em" dy="0.95em" style="text-anchor: middle; visibility: inherit; font-family: Roboto, sans-serif; font-size: 12px; font-weight: 200;" fill="rgb(255, 255, 255)" stroke="none" stroke-width="1px">0</text><text x="51.062603116654195" y="0" dx="0em" dy="0.95em" style="text-anchor: middle; visibility: hidden; font-family: Roboto, sans-serif; font-size: 12px; font-weight: 200;" fill="rgb(255, 255, 255)" stroke="none" stroke-width="1px">200</text><text x="77.31970538938144" y="0" dx="0em" dy="0.95em" style="text-anchor: middle; visibility: inherit; font-family: Roboto, sans-serif; font-size: 12px; font-weight: 200;" fill="rgb(255, 255, 255)" stroke="none" stroke-width="1px">400</text><text x="103.57680766210866" y="0" dx="0em" dy="0.95em" style="text-anchor: middle; visibility: hidden; font-family: Roboto, sans-serif; font-size: 12px; font-weight: 200;" fill="rgb(255, 255, 255)" stroke="none" stroke-width="1px">600</text><text x="129.83390993483593" y="0" dx="0em" dy="0.95em" style="text-anchor: middle; visibility: inherit; font-family: Roboto, sans-serif; font-size: 12px; font-weight: 200;" fill="rgb(255, 255, 255)" stroke="none" stroke-width="1px">800</text><text x="156.09101220756315" y="0" dx="0em" dy="0.95em" style="text-anchor: middle; visibility: hidden; font-family: Roboto, sans-serif; font-size: 12px; font-weight: 200;" fill="rgb(255, 255, 255)" stroke="none" stroke-width="1px">1k</text><text x="182.34811448029038" y="0" dx="0em" dy="0.95em" style="text-anchor: middle; visibility: inherit; font-family: Roboto, sans-serif; font-size: 12px; font-weight: 200;" fill="rgb(255, 255, 255)" stroke="none" stroke-width="1px">1.2k</text><text x="208.60521675301763" y="0" dx="0em" dy="0.95em" style="text-anchor: middle; visibility: hidden; font-family: Roboto, sans-serif; font-size: 12px; font-weight: 200;" fill="rgb(255, 255, 255)" stroke="none" stroke-width="1px">1.4k</text><text x="234.86231902574488" y="0" dx="0em" dy="0.95em" style="text-anchor: middle; visibility: inherit; font-family: Roboto, sans-serif; font-size: 12px; font-weight: 200;" fill="rgb(255, 255, 255)" stroke="none" stroke-width="1px">1.6k</text><text x="261.1194212984721" y="0" dx="0em" dy="0.95em" style="text-anchor: middle; visibility: hidden; font-family: Roboto, sans-serif; font-size: 12px; font-weight: 200;" fill="rgb(255, 255, 255)" stroke="none" stroke-width="1px">1.8k</text><text x="287.3765235711993" y="0" dx="0em" dy="0.95em" style="text-anchor: middle; visibility: hidden; font-family: Roboto, sans-serif; font-size: 12px; font-weight: 200;" fill="rgb(255, 255, 255)" stroke="none" stroke-width="1px">2k</text></g><line x1="0" y1="0" x2="288.828125" y2="0" fill="rgb(0, 0, 0)" stroke="rgb(204, 204, 204)" stroke-width="1px"></line></g></g></g></g></svg>