<svg viewBox="0 0 330 200" xmlns="http://www.w3.org/2000/svg"><g><g><g><g><g><line x1="41.171875" y1="176.14798345835572" x2="36.171875" y2="176.14798345835572" style="visibility: inherit;" fill="rgb(0, 0, 0)" stroke="rgb(204, 204, 204)" stroke-width="1px"></line><line x1="41.171875" y1="161.1130077901071" x2="36.171875" y2="161.1130077901071" style="visibility: inherit;" fill="rgb(0, 0, 0)" stroke="rgb(204, 204, 204)" stroke-width="1px"></line><line x1="41.171875" y1="146.07803212185848" x2="36.171875" y2="146.07803212185848" style="visibility: inherit;" fill="rgb(0, 0, 0)" stroke="rgb(204, 204, 204)" stroke-width="1px"></line><line x1="41.171875" y1="131.04305645360984" x2="36.171875" y2="131.04305645360984" style="visibility: inherit;" fill="rgb(0, 0, 0)" stroke="rgb(204, 204, 204)" stroke-width="1px"></line><line x1="41.171875" y1="116.0080807853612" x2="36.171875" y2="116.0080807853612" style="visibility: inherit;" fill="rgb(0, 0, 0)" stroke="rgb(204, 204, 204)" stroke-width="1px"></line><line x1="41.171875" y1="100.97310511711257" x2="36.171875" y2="100.97310511711257" style="visibility: inherit;" fill="rgb(0, 0, 0)" stroke="rgb(204, 204, 204)" stroke-width="1px"></line><line x1="41.171875" y1="85.93812944886395" x2="36.171875" y2="85.93812944886395" style="visibility: inherit;" fill="rgb(0, 0, 0)" stroke="rgb(204, 204, 204)" stroke-width="1px"></line><line x1="41.171875" y1="70.90315378061531" x2="36.171875" y2="70.90315378061531" style="visibility: inherit;" fill="rgb(0, 0, 0)" stroke="rgb(204, 204, 204)" stroke-width="1px"></line><line x1="41.171875" y1="55.86817811236668" x2="36.171875" y2="55.86817811236668" style="visibility: inherit;" fill="rgb(0, 0, 0)" stroke="rgb(204, 204, 204)" stroke-width="1px"></line><line x1="41.171875" y1="40.833202444118044" x2="36.171875" y2="40.833202444118044" style="visibility: inherit;" fill="rgb(0, 0, 0)" stroke="rgb(204, 204, 204)" stroke-width="1px"></line><line x1="41.171875" y1="25.798226775869406" x2="36.171875" y2="25.798226775869406" style="visibility: inherit;" fill="rgb(0, 0, 0)" stroke="rgb(204, 204, 204)" stroke-width="1px"></line><line x1="41.171875" y1="10.76325110762075" x2="36.171875" y2="10.76325110762075" style="visibility: inherit;" fill="rgb(0, 0, 0)" stroke="rgb(204, 204, 204)" stroke-width="1px"></line></g><g transform="translate(31.171875, 0)"><text x="0" y="176.14798345835572" dx="0em" dy="0.3em" style="text-anchor: end; visibility: hidden; font-family: Roboto, sans-serif; font-size: 12px; font-weight: 200;" fill="rgb(255, 255, 255)" stroke="none" stroke-width="1px">0</text><text x="0" y="161.1130077901071" dx="0em" dy="0.3em" style="text-anchor: end; visibility: inherit; font-family: Roboto, sans-serif; font-size: 12px; font-weight: 200;" fill="rgb(255, 255, 255)" stroke="none" stroke-width="1px">0.1</text><text x="0" y="146.07803212185848" dx="0em" dy="0.3em" style="text-anchor: end; visibility: hidden; font-family: Roboto, sans-serif; font-size: 12px; font-weight: 200;" fill="rgb(255, 255, 255)" stroke="none" stroke-width="1px">0.2</text><text x="0" y="131.04305645360984" dx="0em" dy="0.3em" style="text-anchor: end; visibility: inherit; font-family: Roboto, sans-serif; font-size: 12px; font-weight: 200;" fill="rgb(255, 255, 255)" stroke="none" stroke-width="1px">0.3</text><text x="0" y="116.0080807853612" dx="0em" dy="0.3em" style="text-anchor: end; visibility: hidden; font-family: Roboto, sans-serif; font-size: 12px; font-weight: 200;" fill="rgb(255, 255, 255)" stroke="none" stroke-width="1px">0.4</text><text x="0" y="100.97310511711257" dx="0em" dy="0.3em" style="text-anchor: end; visibility: inherit; font-family: Roboto, sans-serif; font-size: 12px; font-weight: 200;" fill="rgb(255, 255, 255)" stroke="none" stroke-width="1px">0.5</text><text x="0" y="85.93812944886395" dx="0em" dy="0.3em" style="text-anchor: end; visibility: hidden; font-family: Roboto, sans-serif; font-size: 12px; font-weight: 200;" fill="rgb(255, 255, 255)" stroke="none" stroke-width="1px">0.6</text><text x="0" y="70.90315378061531" dx="0em" dy="0.3em" style="text-anchor: end; visibility: inherit; font-family: Roboto, sans-serif; font-size: 12px; font-weight: 200;" fill="rgb(255, 255, 255)" stroke="none" stroke-width="1px">0.7</text><text x="0" y="55.86817811236668" dx="0em" dy="0.3em" style="text-anchor: end; visibility: hidden; font-family: Roboto, sans-serif; font-size: 12px; font-weight: 200;" fill="rgb(255, 255, 255)" stroke="none" stroke-width="1px">0.8</text><text x="0" y="40.833202444118044" dx="0em" dy="0.3em" style="text-anchor: end; visibility: inherit; font-family: Roboto, sans-serif; font-size: 12px; font-weight: 200;" fill="rgb(255, 255, 255)" stroke="none" stroke-width="1px">0.9</text><text x="0" y="25.798226775869406" dx="0em" dy="0.3em" style="text-anchor: end; visibility: hidden; font-family: Roboto, sans-serif; font-size: 12px; font-weight: 200;" fill="rgb(255, 255, 255)" stroke="none" stroke-width="1px">1</text><text x="0" y="10.76325110762075" dx="0em" dy="0.3em" style="text-anchor: end; visibility: inherit; font-family: Roboto, sans-serif; font-size: 12px; font-weight: 200;" fill="rgb(255, 255, 255)" stroke="none" stroke-width="1px">1.1</text></g><line x1="41.171875" y1="0" x2="41.171875" y2="177" fill="rgb(0, 0, 0)" stroke="rgb(204, 204, 204)" stroke-width="1px"></line></g></g><g transform="translate(41, 0)" clip-path="url(#clip_0)"><clipPath id="clip_0"><rect width="288" height="177"></rect></clipPath><g><g><g><line x1="26.660754465716217" y1="0" x2="26.660754465716217" y2="177" fill="rgb(0, 0, 0)" stroke="rgb(189, 189, 189)" stroke-width="1px" opacity="0.25"></line><line x1="65.69217051831794" y1="0" x2="65.69217051831794" y2="177" fill="rgb(0, 0, 0)" stroke="rgb(189, 189, 189)" stroke-width="1px" opacity="0.25"></line><line x1="104.72358657091968" y1="0" x2="104.72358657091968" y2="177" fill="rgb(0, 0, 0)" stroke="rgb(189, 189, 189)" stroke-width="1px" opacity="0.25"></line><line x1="143.7550026235214" y1="0" x2="143.7550026235214" y2="177" fill="rgb(0, 0, 0)" stroke="rgb(189, 189, 189)" stroke-width="1px" opacity="0.25"></line><line x1="182.7864186761231" y1="0" x2="182.7864186761231" y2="177" fill="rgb(0, 0, 0)" stroke="rgb(189, 189, 189)" stroke-width="1px" opacity="0.25"></line><line x1="221.81783472872485" y1="0" x2="221.81783472872485" y2="177" fill="rgb(0, 0, 0)" stroke="rgb(189, 189, 189)" stroke-width="1px" opacity="0.25"></line><line x1="260.84925078132653" y1="0" x2="260.84925078132653" y2="177" fill="rgb(0, 0, 0)" stroke="rgb(189, 189, 189)" stroke-width="1px" opacity="0.25"></line></g><g><line x1="0" y1="176.14798345835572" x2="288.828125" y2="176.14798345835572" fill="rgb(0, 0, 0)" stroke="rgb(189, 189, 189)" stroke-width="1px" opacity="0.25"></line><line x1="0" y1="161.1130077901071" x2="288.828125" y2="161.1130077901071" fill="rgb(0, 0, 0)" stroke="rgb(189, 189, 189)" stroke-width="1px" opacity="0.25"></line><line x1="0" y1="146.07803212185848" x2="288.828125" y2="146.07803212185848" fill="rgb(0, 0, 0)" stroke="rgb(189, 189, 189)" stroke-width="1px" opacity="0.25"></line><line x1="0" y1="131.04305645360984" x2="288.828125" y2="131.04305645360984" fill="rgb(0, 0, 0)" stroke="rgb(189, 189, 189)" stroke-width="1px" opacity="0.25"></line><line x1="0" y1="116.0080807853612" x2="288.828125" y2="116.0080807853612" fill="rgb(0, 0, 0)" stroke="rgb(189, 189, 189)" stroke-width="1px" opacity="0.25"></line><line x1="0" y1="100.97310511711257" x2="288.828125" y2="100.97310511711257" fill="rgb(0, 0, 0)" stroke="rgb(189, 189, 189)" stroke-width="1px" opacity="0.25"></line><line x1="0" y1="85.93812944886395" x2="288.828125" y2="85.93812944886395" fill="rgb(0, 0, 0)" stroke="rgb(189, 189, 189)" stroke-width="1px" opacity="0.25"></line><line x1="0" y1="70.90315378061531" x2="288.828125" y2="70.90315378061531" fill="rgb(0, 0, 0)" stroke="rgb(189, 189, 189)" stroke-width="1px" opacity="0.25"></line><line x1="0" y1="55.86817811236668" x2="288.828125" y2="55.86817811236668" fill="rgb(0, 0, 0)" stroke="rgb(189, 189, 189)" stroke-width="1px" opacity="0.25"></line><line x1="0" y1="40.833202444118044" x2="288.828125" y2="40.833202444118044" fill="rgb(0, 0, 0)" stroke="rgb(189, 189, 189)" stroke-width="1px" opacity="0.25"></line><line x1="0" y1="25.798226775869406" x2="288.828125" y2="25.798226775869406" fill="rgb(0, 0, 0)" stroke="rgb(189, 189, 189)" stroke-width="1px" opacity="0.25"></line><line x1="0" y1="10.76325110762075" x2="288.828125" y2="10.76325110762075" fill="rgb(0, 0, 0)" stroke="rgb(189, 189, 189)" stroke-width="1px" opacity="0.25"></line></g></g></g><g><g><line x1="0" y1="176.14798345835572" x2="288.828125" y2="176.14798345835572" fill="rgb(0, 0, 0)" stroke="rgb(153, 153, 153)" stroke-width="1.5px"></line></g></g><g><g><line x1="104.72358657091968" y1="0" x2="104.72358657091968" y2="177" fill="rgb(0, 0, 0)" stroke="rgb(153, 153, 153)" stroke-width="1.5px"></line></g></g><g><g><g><g><g><path stroke="rgb(255, 112, 67)" stroke-width="2px" d="M104.87971223513007,2.176063216212865L105.11390073144568,10.46574219063193L105.34808922776129,13.304687586516327L105.58227772407692,13.0105876408039L105.81646622039251,15.967144338032988L106.05065471670812,16.40880506460048L106.28484321302373,18.50026808886338L106.51903170933934,17.501181412414578L106.75322020565496,19.273093706461932L106.98740870197057,19.67768948771079L107.22159719828618,21.102574958131825L107.45578569460179,20.788920923762415L107.68997419091741,21.03161745401362L107.92416268723301,21.58348724671469L108.15835118354862,22.64026834239978L108.39253967986423,22.697693915320905L108.62672817617984,21.56880823790619L108.86091667249545,22.019824816241737L109.09510516881106,22.76469041706221L109.32929366512667,22.660127123547287L109.56348216144228,22.477634244807316L109.79767065775789,23.960751827095L110.0318591540735,23.346670997062738L110.2660476503891,23.770050174198392L110.50023614670472,24.14672178484454L110.73442464302033,23.92558672907026L110.96861313933594,23.429977508591254L111.20280163565155,24.115266765969203L111.43699013196716,23.397733873858062L111.67117862828277,24.858375904197214L111.90536712459838,24.419134794466288L112.139555620914,22.89255372455885L112.37374411722959,23.842853756347456L112.60793261354522,24.65226039589731L112.84212110986083,23.889525476661625L113.07630960617644,23.965017521962423L113.31049810249205,24.881801379792687L113.54468659880766,23.98310191742978L113.77887509512327,23.8687705411302L114.01306359143888,25.007298839715805L114.24725208775449,24.652314165160355L114.48144058407009,24.364523146310667L114.71562908038571,24.28462202144101L114.94981757670132,24.364415607784583L115.18400607301693,24.40967140417217L115.41819456933254,24.51462900561603L115.65238306564815,26.467707869915145L115.88657156196376,26.151329526218646L116.12076005827936,23.56506382042222L116.35494855459498,24.295931489765984L116.58913705091058,24.566821036935085L116.8233255472262,25.710708338736488L117.0575140435418,24.546119870666722L117.29170253985743,27.94454340997161L117.52589103617304,24.244026227849766L117.76007953248865,24.237143762181315L117.99426802880426,24.81808480309651L118.22845652511985,24.699810347507714L118.46264502143548,24.710008584396647L118.69683351775107,26.742854150407855L118.9310220140667,26.803407302128818L119.1652105103823,25.72449119316107L119.39939900669792,25.346941351218693L119.63358750301353,24.81582649404905L119.86777599932914,24.906427702262615L120.10196449564475,24.58607043310153L120.33615299196035,25.36319759174286L120.57034148827597,26.09279272186148L120.80452998459157,25.065333797617992L121.03871848090719,26.863368991956424L121.27290697722279,25.402664230810377L121.50709547353841,25.002656760007152L121.74128396985402,27.46135488925362L121.97547246616963,24.91547886154013L122.20966096248524,26.044382462042513L122.44384945880084,25.625734980053906L122.67803795511647,24.88171176435431L122.91222645143206,29.13804181846642L123.14641494774769,24.82382019115354L123.38060344406328,23.87274946659479L123.61479194037891,25.299803630624893L123.8489804366945,28.02677453623944L124.08316893301013,25.259333298647398L124.31735742932574,25.153067311803035L124.55154592564134,24.322081274688564L124.78573442195696,26.536326411091327L125.01992291827256,24.765337156059413L125.25411141458818,31.0181378697397L125.48829991090378,25.027014236161897L125.7224884072194,25.24230636535306L125.956676903535,25.255049680692288L126.19086539985061,25.163211779428927L126.42505389616623,31.87099007382164L126.65924239248183,26.309079582418768L126.89343088879745,27.044759600804166L127.12761938511305,25.21535004148496L127.36180788142867,25.20325195730215L127.59599637774427,25.344951888486396L127.8301848740599,26.23495865332537L128.0643733703755,26.255166934682588L128.2985618666911,25.06001064057755L128.53275036300673,25.739528663723114L128.76693885932232,25.142743613300354L129.00112735563795,25.304714556648733L129.23531585195354,26.074054133693846L129.46950434826917,26.189837280095368L129.70369284458476,25.383773296397493L129.9378813409004,34.205570820896206L130.172069837216,24.91390162982444L130.40625833353158,26.03129860803739L130.6404468298472,32.77004799793811L130.8746353261628,26.445994049192947L131.10882382247843,25.37597675325746L131.34301231879405,25.237449208592242L131.57720081510965,25.240209364094703L131.81138931142527,25.13539514735228L132.04557780774087,23.790141955485712L132.2797663040565,26.310620967959103L132.5139548003721,25.410407004687386L132.74814329668772,27.15634874468895L132.9823317930033,25.429584708503103L133.21652028931894,25.2381482090117L133.45070878563453,25.05300271329535L133.68489728195016,27.744629290008387L133.91908577826575,25.310880098810056L134.15327427458138,25.29087793296111L134.38746277089697,29.06223611913125L134.62165126721257,31.360191036535298L134.8558397635282,25.065835644072994L135.0900282598438,25.20362834214338L135.32421675615942,34.97939116986088L135.55840525247504,31.317874626526947L135.79259374879064,25.381980987629678L136.02678224510626,25.575460719116396L136.26097074142186,31.672025877505355L136.49515923773748,23.939046967916635L136.72934773405308,29.056626192687947L136.9635362303687,24.81713487944955L137.1977247266843,30.442430370426557L137.43191322299992,25.477188429376547L137.66610171931552,25.396606227175116L137.90029021563114,25.582038492294323L138.13447871194674,27.065451805528696L138.36866720826234,29.0075527786249L138.60285570457796,32.29411832772981L138.83704420089356,25.43112609404344L139.07123269720918,34.733450560739904L139.30542119352478,25.391659454975922L139.5396096898404,24.362784606805874L139.773798186156,35.038734513163575L140.00798668247162,33.55684466238187L140.24217517878725,25.509700910424904L140.47636367510285,36.82189354472903L140.71055217141847,24.995684678900307L140.94474066773407,25.426788706825306L141.1789291640497,25.32917957132954L141.4131176603653,25.381730064402177L141.6473061566809,31.422850151058473L141.8814946529965,29.944894418022127L142.11568314931213,25.341438963301474L142.34987164562773,35.44184267813514L142.58406014194333,25.61571597404175L142.81824863825895,34.63883458088641L143.05243713457455,24.24933146180254L143.28662563089017,25.665703465576403L143.52081412720577,25.637331217781735L143.7550026235214,36.81214338503206L143.989191119837,25.68027493585882L144.2233796161526,25.71775211219404L144.4575681124682,37.57413449612911L144.69175660878383,47.89050245594186L144.92594510509943,36.149750872163054L145.16013360141505,25.698431023676886L145.39432209773068,37.63775249584306L145.62851059404628,25.620125053610607L145.86269909036187,25.7962552362248L146.0968875866775,25.824430330055005L146.33107608299312,25.24947560042436L146.5652645793087,25.75361621063824L146.7994530756243,25.751752209519694L147.03364157193994,25.744547128273037L147.26783006825556,25.682802091221447L147.50201856457116,26.091134836251225L147.73620706088676,24.75961969109005L147.97039555720238,40.014264306540895L148.204584053518,41.054995277210104L148.4387725498336,40.15755939252851L148.6729610461492,25.691817404323608L148.90714954246482,50.525653383380714L149.14133803878042,25.841385570998636L149.37552653509604,25.802438701473786L149.60971503141167,45.47511546806991L149.84390352772726,32.196769077005385L150.07809202404286,40.000024413380515L150.31228052035848,25.879938132594546L150.5464690166741,26.27541106221518L150.78065751298968,25.793835619388233L151.0148460093053,44.591247360760754L151.24903450562093,43.81704166541097L151.48322300193655,25.68681686286139L151.71741149825212,67.86831979026022L151.95159999456774,42.4570556954729L152.18578849088337,25.762972062406273L152.41997698719896,49.729052789976954L152.6541654835146,25.813335938782156L152.88835397983019,45.29549924490232L153.1225424761458,25.537374157800112L153.3567309724614,25.77842176398492L153.59091946877703,45.63990033618375L153.82510796509266,25.081016499336474L154.05929646140825,25.79215084914646L154.29348495772385,62.347247054132275L154.52767345403947,25.782024304608257L154.7618619503551,25.795305312577838L154.99605044667067,25.880771556171588L155.2302389429863,39.37782442462999L155.46442743930191,36.34775618328855L155.69861593561754,25.814456131762054L155.9328044319331,26.329036940548505L156.16699292824873,43.97394037494641L156.40118142456436,48.22846019720299L156.63536992087995,20.71731818848779L156.86955841719558,25.794122388791088L157.10374691351117,48.12602078957793L157.3379354098268,20.501022366386664L157.5721239061424,42.0378167515909L157.80631240245802,25.7358365076614L158.04050089877362,25.335757344507467L158.27468939508924,25.882949211324487L158.50887789140484,26.14510125325045L158.74306638772046,25.950214559380978L158.97725488403609,43.253880327472615L159.21144338035165,26.95892593391302L159.44563187666728,25.806417626938355L159.6798203729829,45.742330782264965L159.91400886929853,47.08362297175463L160.1481973656141,57.96230988438488L160.38238586192972,24.967545431245455L160.61657435824534,25.81802282621002L160.85076285456094,27.656752391121923L161.08495135087657,25.815755555618722L161.31913984719216,26.680392189849137L161.5533283435078,45.94164447879098L161.78751683982338,48.69922801815994L162.021705336139,50.796381622760705L162.2558938324546,25.790914156096665L162.4900823287702,26.740981187745476L162.72427082508582,52.284428054159896L162.95845932140145,28.05986951763732L163.19264781771707,52.58235457909164L163.42683631403264,42.7263232032071L163.66102481034827,25.829493602324117L163.8952133066639,42.48185228727575L164.12940180297952,52.10203375240218L164.36359029929508,25.547321471461544L164.5977787956107,26.352345916074082L164.83196729192633,42.149898780386856L165.06615578824193,59.08087186329691L165.30034428455753,25.857964427101013L165.53453278087315,25.667961774623862L165.76872127718877,26.78318109768391L166.00290977350437,25.496133133052467L166.23709826982,72.78093058434303L166.4712867661356,63.265070451047876L166.7054752624512,44.206080206555114L166.9396637587668,54.580635470515325L167.17385225508244,62.847489392776126L167.40804075139806,80.99327143543042L167.64222924771363,55.96065049093386L167.87641774402925,26.59489906162387L168.11060624034488,27.237916716712693L168.3447947366605,53.313365633136826L168.57898323297607,25.955385370176153L168.8131717292917,27.32021953533121L169.04736022560732,82.76666238421123L169.28154872192292,25.800520931092223L169.5157372182385,26.696747007355537L169.74992571455414,26.05139038932471L169.98411421086976,25.871872743139324L170.21830270718536,78.88851844165409L170.45249120350098,26.011278519100777L170.68667969981658,62.0370611372286L170.92086819613218,29.66354674919276L171.1550566924478,29.286444984442344L171.38924518876343,62.7988819789927L171.62343368507902,26.455466401030897L171.85762218139462,84.26389439804552L172.09181067771024,25.829681794744722L172.32599917402587,28.895390095934403L172.56018767034143,27.154905936130866L172.79437616665706,26.0187524466626L173.02856466297268,47.769172113903934L173.2627531592883,31.859850874829604L173.4969416556039,52.89326638104628L173.7311301519195,46.19747863231035L173.96531864823513,55.139853729164464L174.19950714455075,29.79813121456875L174.43369564086635,30.003332645397066L174.66788413718197,26.130305744372052L174.90207263349757,62.19650492521433L175.13626112981316,25.890010907869726L175.3704496261288,25.53563561829532L175.6046381224444,26.871040073482707L175.83882661876,50.50036390666669L176.0730151150756,51.2016495197975L176.30720361139123,66.3547508820072L176.54139210770686,47.083112163755814L176.77558060402242,26.211452523835337L177.00976910033805,24.972725203584464L177.24395759665367,24.851242515301266L177.4781460929693,31.086514449232215L177.7123345892849,26.560898964298218L177.9465230856005,26.009468287245273L178.1807115819161,57.27149135445817L178.41490007823174,26.872500805128478L178.64908857454733,85.99399212853952L178.88327707086293,26.794866950850135L179.11746556717856,64.95945642934295L179.35165406349415,26.303604079133073L179.58584255980978,29.77484016213086L179.8200310561254,32.65197069631379L180.054219552441,26.31869531895816L180.2884080487566,56.21394852754675L180.52259654507222,27.459965849958557L180.75678504138784,55.31932656763064L180.9909735377034,27.140952812373346L181.22516203401904,70.34253931343605L181.45935053033466,62.14158858456817L181.69353902665028,26.33755936873952L181.92772752296588,146.23688175948766L182.16191601928148,53.006128064156236L182.3961045155971,28.171413853802918L182.6302930119127,66.97618017798756L182.86448150822832,27.047537679394296L183.09867000454392,27.292053403044854L183.33285850085954,25.019199769934175L183.56704699717514,59.72787740539414L183.80123549349076,26.34542760423028L184.0354239898064,60.43807079310102L184.26961248612199,30.473759927688143L184.50380098243758,27.689345526064827L184.7379894787532,26.439156391243685L184.97217797506883,51.19510759279495L185.2063664713844,27.750059985574893L185.44055496770002,71.20049959750628L185.67474346401565,32.144173776213556L185.90893196033127,26.668141759421058L186.14312045664684,66.32556313372315L186.37730895296247,53.13529079550957L186.6114974492781,59.45873535927367L186.8456859455937,79.57941762547536L187.0798744419093,29.93848691417714L187.3140629382249,54.11853346245078L187.54825143454053,72.64807569692798L187.78243993085613,89.99749014631836L188.01662842717175,55.459189382327885L188.25081692348738,28.915661108098494L188.48500541980297,61.82973582051042L188.71919391611857,29.13681408696046L188.9533824124342,26.276423716668994L189.18757090874982,58.705159137841555L189.4217594050654,95.22831640058469L189.655947901381,26.049723542170625L189.89013639769664,30.697735792859426L190.12432489401226,59.20806305500562L190.35851339032783,70.30473952152259L190.59270188664345,56.94626796699245L190.82689038295908,34.684233761975435L191.06107887927467,26.80456334128407L191.2952673755903,57.73589647928936L191.5294558719059,35.328389533131805L191.76364436822152,29.365924916751542L191.99783286453712,57.36048844632453L192.23202136085274,37.50150118331299L192.46620985716834,34.67503025645265L192.70039835348393,60.56234948306203L192.93458684979956,59.124586274144164L193.16877534611518,26.02205925633925L193.4029638424308,29.363729338510954L193.63715233874638,53.73128723007447L193.871340835062,73.22639996704216L194.10552933137762,59.61393137547964L194.33971782769325,61.85883395335607L194.57390632400882,26.793657142431844L194.80809482032444,32.347107936450556L195.04228331664007,72.72822774502512L195.27647181295566,65.65829554100567L195.5106603092713,91.09264457272258L195.74484880558688,60.06703599352969L195.9790373019025,26.86348549202632L196.2132257982181,29.905293355797028L196.44741429453373,37.342953549711176L196.68160279084933,45.72253473192435L196.91579128716492,30.00835110994697L197.14997978348055,60.04154040130738L197.38416827979617,35.22344985477563L197.6183567761118,31.35608664945698L197.85254527242736,29.924928098348555L198.086733768743,79.0103685532347L198.3209222650586,30.351721623686924L198.55511076137424,29.472343249841174L198.7892992576898,65.81110778655045L199.02348775400543,48.10941504884403L199.25767625032105,32.630445068012214L199.49186474663665,65.50260663988854L199.72605324295225,63.080874878978484L199.96024173926787,29.853379132336975L200.1944302355835,26.71867590512988L200.4286187318991,30.63379517756725L200.66280722821472,45.60926081779779L200.8969957245303,27.403319931351433L201.1311842208459,74.66888590956322L201.36537271716153,58.825656056302435L201.59956121347716,68.39060752674833L201.83374970979278,31.763854817224882L202.06793820610835,84.66589133158104L202.30212670242398,67.42440075464526L202.5363151987396,39.86757279543824L202.7705036950552,67.68555806520507L203.0046921913708,46.1518912588007L203.23888068768642,32.77015553646419L203.47306918400204,70.88621825506814L203.70725768031764,29.891304385864153L203.94144617663324,50.93233720434409L204.17563467294886,47.95259699320318L204.40982316926448,45.00668661005496L204.64401166558008,96.84507748614524L204.8782001618957,85.6129741691314L205.1123886582113,70.26552380568258L205.3465771545269,45.51350672187674L205.58076565084252,61.680812884991816L205.81495414715815,73.2658755676535L206.04914264347374,62.44191680324879L206.28333113978934,52.97659081566248L206.51751963610496,49.049328651323094L206.7517081324206,47.430004564224525L206.98589662873616,30.132817992328587L207.22008512505178,106.89991175055697L207.4542736213674,86.8703325390238L207.68846211768303,41.83320678265598L207.92265061399863,89.9490350787802L208.15683911031422,84.7794878612858L208.39102760662985,58.8910394801527L208.62521610294547,53.60252776819391L208.85940459926107,68.82459717178952L209.0935930955767,56.567624816701695L209.3277815918923,48.276431341373836L209.5619700882079,52.17110037077032L209.7961585845235,69.11242403681456L210.03034708083914,61.30648919883152L210.26453557715473,62.484788828975184L210.49872407347033,67.07900493199767L210.73291256978595,43.65885249356272L210.96710106610158,83.1028457397922L211.20128956241714,52.51273234500548L211.43547805873277,42.149800203404624L211.6696665550484,55.21076642556346L211.90385505136402,28.56574866735599L212.13804354767962,85.38844268824211L212.3722320439952,69.32314577864778L212.60642054031084,53.029481847400994L212.84060903662643,38.65139271948661L213.07479753294206,63.618029816695696L213.30898602925765,66.27521718043495L213.54317452557328,64.64376812452205L213.77736302188887,62.1048552163716L214.0115515182045,97.18035572579846L214.24574001452012,46.87448742318095L214.47992851083572,108.66036223003405L214.71411700715132,63.76177297987528L214.94830550346694,61.035070920575926L215.18249399978257,71.56371993084989L215.41668249609813,52.639054266961786L215.65087099241376,74.83123323775283L215.88505948872938,95.2541794161044L216.119247985045,57.365793680277285L216.3534364813606,86.87548542673132L216.5876249776762,95.36781179198451L216.82181347399182,86.41141187902217L217.05600197030742,106.30368679662415L217.29019046662305,55.85317469567122L217.52437896293864,57.4440817272559L217.75856745925427,79.95157261802657L217.99275595556986,95.67623228475188L218.2269444518855,100.84551961747492L218.4611329482011,67.32128923123229L218.6953214445167,87.92737351948026L218.9295099408323,64.51094012173853L219.16369843714793,53.71607949017947L219.39788693346355,84.16676918591709L219.63207542977912,106.80721354108505L219.86626392609475,54.10598730107601L220.10045242241037,94.10055091614988L220.334640918726,85.04942748480796L220.56882941504156,140.03459726842854L220.8030179113572,115.20570806157069L221.0372064076728,53.13213633207819L221.2713949039884,63.30322870471487L221.50558340030403,75.51617299492106L221.73977189661963,94.25609643256558L221.97396039293525,80.01686642643844L222.20814888925085,115.83977313436421L222.44233738556647,126.51388144346295L222.6765258818821,95.81097805791698L222.91071437819767,59.88554680769972L223.1449028745133,105.7530581777448L223.37909137082892,127.37425238282592L223.61327986714454,56.932906305128306L223.8474683634601,95.21059046687091L224.08165685977573,130.36890012214323L224.31584535609136,74.37470530995623L224.55003385240698,59.528276939465265L224.78422234872255,88.17323347470668L225.01841084503818,98.29449070205396L225.2525993413538,105.49656535075326L225.4867878376694,142.41091640593385L225.72097633398502,115.29298453701993L225.95516483030062,82.32849665974099L226.18935332661624,101.38249980508729L226.42354182293184,78.91376311064892L226.65773031924746,147.4109941082725L226.89191881556306,69.08690155996072L227.12610731187866,105.27828454669175L227.36029580819428,79.31892346915964L227.5944843045099,103.66853138841338L227.82867280082553,97.33823124361236L228.0628612971411,114.48103281901976L228.29704979345672,128.64311289423586L228.53123828977235,101.86830509660632L228.76542678608797,83.12638771545758L228.99961528240354,64.16868083943464L229.23380377871916,102.1887116542585L229.4679922750348,82.63208688037908L229.70218077135038,103.03099371738222L229.936369267666,99.10012453164757L230.1705577639816,104.36508082562523L230.40474626029723,92.83238492438747L230.63893475661283,106.93036307652231L230.87312325292845,86.28277787875535L231.10731174924405,146.14376683822724L231.34150024555964,135.1761500453094L231.57568874187527,137.0280889258402L231.8098772381909,87.56324807020887L232.04406573450652,118.66597969568129L232.27825423082209,84.55808395919637L232.5124427271377,125.93896256000765L232.74663122345333,105.99299007172166L232.98081971976893,138.07344405313037L233.21500821608453,59.75232449698726L233.44919671240015,112.42527258541192L233.68338520871578,134.52210521052658L233.91757370503137,139.12896829229203L234.15176220134697,78.88204820700224L234.3859506976626,112.82942477024075L234.62013919397822,103.92346490677691L234.85432769029381,106.21369945416356L235.08851618660944,26.430777347754113L235.32270468292504,130.82819268621418L235.55689317924063,122.206627416485L235.79108167555626,53.5167478705658L236.02527017187188,63.18855678974941L236.2594586681875,114.98732868052696L236.49364716450307,122.1309471787636L236.7278356608187,62.0199535500397L236.96202415713432,126.52485485389396L237.19621265344992,142.9590671579417L237.43040114976552,25.04047447500825L237.66458964608114,72.2302347538849L237.89877814239676,117.1103184160159L238.13296663871236,96.68226415767602L238.36715513502796,106.74066959730762L238.60134363134358,76.94912385479732L238.8355321276592,129.6997685283072L239.0697206239748,82.31520669022758L239.30390912029043,143.98836991983003L239.53809761660602,151.3888240241101L239.77228611292162,119.99000747096488L240.00647460923724,120.3432222406121L240.24066310555287,134.37276108244754L240.47485160186847,108.44763310238089L240.70904009818406,113.48769497294374L240.9432285944997,97.90479796820959L241.1774170908153,120.413695821363L241.41160558713088,108.83620564324539L241.6457940834465,105.51874965252702L241.87998257976213,91.74561850301664L242.11417107607775,154.7198545133588L242.34835957239335,151.40579942852736L242.58254806870895,155.27158988290228L242.81673656502457,83.83654525698913L243.0509250613402,69.32974147491338L243.2851135576558,125.02269399094814L243.51930205397142,123.88581909720085L243.753490550287,113.88358013358098L243.9876790466026,122.82250951682894L244.22186754291823,154.71763877164457L244.45605603923386,113.47288154097768L244.69024453554945,88.72277326600955L244.92443303186505,127.86358852261756L245.15862152818067,157.83000423063964" style="fill: none;" fill="none"></path></g></g></g></g></g></g><g transform="translate(41, 177)" clip-path="url(#clip_1)"><clipPath id="clip_1"><rect width="288" height="23"></rect></clipPath><g><g><line x1="26.660754465716217" y1="0" x2="26.660754465716217" y2="5" style="visibility: inherit;" fill="rgb(0, 0, 0)" stroke="rgb(204, 204, 204)" stroke-width="1px"></line><line x1="65.69217051831794" y1="0" x2="65.69217051831794" y2="5" style="visibility: inherit;" fill="rgb(0, 0, 0)" stroke="rgb(204, 204, 204)" stroke-width="1px"></line><line x1="104.72358657091968" y1="0" x2="104.72358657091968" y2="5" style="visibility: inherit;" fill="rgb(0, 0, 0)" stroke="rgb(204, 204, 204)" stroke-width="1px"></line><line x1="143.7550026235214" y1="0" x2="143.7550026235214" y2="5" style="visibility: inherit;" fill="rgb(0, 0, 0)" stroke="rgb(204, 204, 204)" stroke-width="1px"></line><line x1="182.7864186761231" y1="0" x2="182.7864186761231" y2="5" style="visibility: inherit;" fill="rgb(0, 0, 0)" stroke="rgb(204, 204, 204)" stroke-width="1px"></line><line x1="221.81783472872485" y1="0" x2="221.81783472872485" y2="5" style="visibility: inherit;" fill="rgb(0, 0, 0)" stroke="rgb(204, 204, 204)" stroke-width="1px"></line><line x1="260.84925078132653" y1="0" x2="260.84925078132653" y2="5" style="visibility: inherit;" fill="rgb(0, 0, 0)" stroke="rgb(204, 204, 204)" stroke-width="1px"></line></g><g transform="translate(0, 8)"><text x="26.660754465716217" y="0" dx="0em" dy="0.95em" style="text-anchor: middle; visibility: inherit; font-family: Roboto, sans-serif; font-size: 12px; font-weight: 200;" fill="rgb(255, 255, 255)" stroke="none" stroke-width="1px">-1k</text><text x="65.69217051831794" y="0" dx="0em" dy="0.95em" style="text-anchor: middle; visibility: inherit; font-family: Roboto, sans-serif; font-size: 12px; font-weight: 200;" fill="rgb(255, 255, 255)" stroke="none" stroke-width="1px">-500</text><text x="104.72358657091968" y="0" dx="0em" dy="0.95em" style="text-anchor: middle; visibility: inherit; font-family: Roboto, sans-serif; font-size: 12px; font-weight: 200;" fill="rgb(255, 255, 255)" stroke="none" stroke-width="1px">0</text><text x="143.7550026235214" y="0" dx="0em" dy="0.95em" style="text-anchor: middle; visibility: inherit; font-family: Roboto, sans-serif; font-size: 12px; font-weight: 200;" fill="rgb(255, 255, 255)" stroke="none" stroke-width="1px">500</text><text x="182.7864186761231" y="0" dx="0em" dy="0.95em" style="text-anchor: middle; visibility: inherit; font-family: Roboto, sans-serif; font-size: 12px; font-weight: 200;" fill="rgb(255, 255, 255)" stroke="none" stroke-width="1px">1k</text><text x="221.81783472872485" y="0" dx="0em" dy="0.95em" style="text-anchor: middle; visibility: inherit; font-family: Roboto, sans-serif; font-size: 12px; font-weight: 200;" fill="rgb(255, 255, 255)" stroke="none" stroke-width="1px">1.5k</text><text x="260.84925078132653" y="0" dx="0em" dy="0.95em" style="text-anchor: middle; visibility: inherit; font-family: Roboto, sans-serif; font-size: 12px; font-weight: 200;" fill="rgb(255, 255, 255)" stroke="none" stroke-width="1px">2k</text></g><line x1="0" y1="0" x2="288.828125" y2="0" fill="rgb(0, 0, 0)" stroke="rgb(204, 204, 204)" stroke-width="1px"></line></g></g></g></g></svg>